<svg width="68" height="91" viewBox="0 0 68 91" fill="none" xmlns="http://www.w3.org/2000/svg">
<g clip-path="url(#clip0_2061_981)">
<path d="M1.46518 91C0.657349 91 0 90.3434 0 89.5366C0 85.4944 3.6669 81.6342 7.0962 80.5584C7.11996 80.5584 7.14372 80.5426 7.15956 80.5426L18.7463 77.4576H18.778C21.051 76.714 22.8488 74.9184 23.5933 72.656L24.7179 69.2388L23.229 69.0015C18.0494 68.1867 13.3054 65.5368 9.85232 61.55C6.36757 57.5157 4.44305 52.3661 4.44305 47.0425V39.6147C4.44305 31.657 7.72187 23.9128 13.44 18.3519L13.8756 17.9326L12.7589 4.16081C12.6956 3.41725 13.2103 2.74487 13.939 2.6104L20.164 1.41594C25.0505 0.482528 30.0242 0 34.9583 0C39.8924 0 44.8661 0.474617 49.7526 1.41594L55.9776 2.6104C56.7142 2.75278 57.2211 3.41725 57.1577 4.16081L55.9143 19.4356L56.2786 19.8469C61.1572 25.2813 63.8421 32.3056 63.8421 39.6147V47.0425C63.8421 58.2514 55.4549 67.7358 44.3275 69.1043L42.7435 69.3021L43.9157 72.5927C44.7314 74.8788 46.6164 76.6349 48.9527 77.2915H48.9844L60.492 79.8939C60.5078 79.8939 60.5316 79.9019 60.5474 79.9098C62.5194 80.4477 64.3252 81.5709 65.6399 83.0739C67.1842 84.8458 68 87.0844 68 89.5524C68 90.3593 67.3427 91.0158 66.5348 91.0158H1.46518V91ZM23.1102 78.3514C22.0568 79.2216 20.8768 79.8623 19.5938 80.2657C19.57 80.2736 19.5462 80.2815 19.5225 80.2895L7.93571 83.3666H7.90403C6.61309 83.8016 5.30631 84.7588 4.33217 86.0165L2.72444 88.0811H65.2835L64.2856 86.1984C63.0026 83.7937 60.5712 82.9473 59.8584 82.7416H59.8267L48.3191 80.1392C48.3033 80.1392 48.2874 80.1392 48.2637 80.1233C46.8064 79.7278 45.4838 79.0396 44.3196 78.0746L43.5355 77.4259L42.7277 78.035C40.0666 80.0442 36.8828 81.1121 33.5248 81.1121C30.1668 81.1121 27.2602 80.1392 24.6704 78.2882L23.8705 77.7186L23.1102 78.3435V78.3514ZM26.3811 73.5736C26.294 73.8426 26.191 74.1194 26.0485 74.4438L25.6366 75.4009L26.4999 75.9942C28.567 77.4259 30.9984 78.1853 33.5327 78.1853C36.2572 78.1853 38.839 77.3152 41.0012 75.6778L41.7932 75.0766L41.4051 74.159C41.318 73.9612 41.2467 73.7635 41.1754 73.5657L39.3222 68.3687L38.2213 68.6139C36.9066 68.9065 35.5523 69.0568 34.2059 69.0568C32.5665 69.0568 30.9429 68.8433 29.3669 68.4161L28.1947 68.0997L26.4048 73.5578L26.3811 73.5736ZM21.5183 33.1995C22.2073 33.1995 22.9043 33.3023 23.5775 33.508C30.7212 35.6833 41.508 38.27 52.3266 38.27C53.1344 38.27 53.7918 38.9265 53.7918 39.7334V48.3161C53.7918 51.4881 53.1265 54.5336 51.8197 57.3733L51.788 57.4366C51.7643 57.4999 51.7326 57.5632 51.7009 57.6186L51.6771 57.6502L51.6613 57.6898C50.8456 59.3905 49.8081 60.9646 48.5805 62.3726L44.375 67.19L50.109 64.3581C56.7696 61.0675 60.9038 54.4307 60.9038 47.0346V39.6068C60.9038 35.098 59.7633 30.6445 57.6012 26.7289L56.1281 24.0552L55.249 26.9741C55.154 27.2905 54.956 27.5674 54.6867 27.7572C54.4412 27.9312 54.1481 28.0183 53.8472 28.0183C53.7126 28.0183 53.5779 28.0024 53.4512 27.9629L49.515 26.8633C44.771 25.5344 39.8607 24.862 34.9345 24.862C30.0084 24.862 25.0981 25.5344 20.3541 26.8633L16.4179 27.9629C16.2912 28.0024 16.1565 28.0183 16.0219 28.0183C15.7209 28.0183 15.4279 27.9312 15.1824 27.7572C14.826 27.5041 14.5963 27.1086 14.5567 26.6735L14.129 21.4527L12.0857 24.4112C8.98113 28.9121 7.34172 34.1646 7.34172 39.5989V47.0267C7.34172 54.3833 11.6422 61.2177 18.287 64.4214L23.9814 67.1742L19.8076 62.428C16.4179 58.5757 14.5488 53.5606 14.5488 48.3082V40.1447C14.5488 37.9219 15.5784 35.889 17.3604 34.5601C18.5721 33.6583 19.9977 33.1837 21.4787 33.1837L21.5183 33.1995ZM33.6911 51.2191C26.5316 51.2191 22.2232 54.3595 20.2828 56.2343L19.5621 56.9383L20.0769 57.8084C23.1577 63.0292 28.4323 66.1459 34.1901 66.1459C35.9483 66.1459 37.6907 65.8532 39.3538 65.2678L39.4409 65.2362L39.5201 65.1966C39.5914 65.1571 39.6548 65.1333 39.7023 65.1175C39.7498 65.1017 39.7973 65.0859 39.8528 65.0701L39.9478 65.0463L40.0349 65.0147C43.3296 63.6937 46.2124 61.2257 48.1528 58.0615L48.7151 57.1439L47.9073 56.432C45.7056 54.4861 40.9299 51.2191 33.6911 51.2191ZM33.6911 48.3002C40.5339 48.3002 45.4759 50.9106 48.4142 53.1018L50.014 54.2883L50.4337 52.3424C50.7188 51.0293 50.8614 49.6687 50.8614 48.3161V41.1889L49.6259 41.1414C39.2905 40.7617 29.2877 38.3016 22.7221 36.3003C22.334 36.1817 21.938 36.1263 21.5341 36.1263C20.6709 36.1263 19.8393 36.4032 19.1423 36.9173C18.1048 37.6846 17.5108 38.8633 17.5108 40.1526V48.3161C17.5108 49.5422 17.6296 50.7683 17.8593 51.9548L18.2553 53.9798L19.8947 52.7221C22.5399 50.6971 27.078 48.2844 33.6911 48.2844V48.3002ZM34.9583 2.92681C30.2143 2.92681 25.4149 3.3856 20.7184 4.28738L15.7843 5.23661L17.3604 24.688L19.5858 24.0631C24.5912 22.663 29.7629 21.959 34.9583 21.959C40.1537 21.959 45.3254 22.6709 50.3308 24.0631L52.5563 24.688L54.1402 5.23661L49.2062 4.28738C44.5017 3.3856 39.7102 2.92681 34.9662 2.92681H34.9583Z" fill="white"/>
<path d="M34.9583 17.632C34.1505 17.632 33.4931 16.9755 33.4931 16.1686V13.93H31.2518C30.444 13.93 29.7866 13.2735 29.7866 12.4666C29.7866 11.6598 30.444 11.0032 31.2518 11.0032H33.4931V8.7646C33.4931 7.95775 34.1505 7.3012 34.9583 7.3012C35.7661 7.3012 36.4235 7.95775 36.4235 8.7646V11.0032H38.6648C39.4726 11.0032 40.13 11.6598 40.13 12.4666C40.13 13.2735 39.4726 13.93 38.6648 13.93H36.4235V16.1686C36.4235 16.9755 35.7661 17.632 34.9583 17.632Z" fill="white"/>
</g>
<defs>
<clipPath id="clip0_2061_981">
<rect width="68" height="91" fill="white"/>
</clipPath>
</defs>
</svg>
