<svg width="90" height="76" viewBox="0 0 90 76" fill="none" xmlns="http://www.w3.org/2000/svg">
<g clip-path="url(#clip0_2061_1044)">
<path d="M32.6814 75.6842C26.6288 75.6842 21.7079 70.8036 21.7079 64.8005C21.7079 63.9988 21.7984 63.2036 21.973 62.4275C21.1905 62.6007 20.3887 62.6905 19.5804 62.6905C13.5278 62.6905 8.60684 57.8098 8.60684 51.8068C8.60684 50.973 8.70384 50.1521 8.89136 49.3376C3.75054 48.3756 0 43.9502 0 38.6527C0 33.3551 4.16439 28.5707 9.53154 27.8652C8.7685 26.1399 8.47104 24.2544 8.6715 22.3303C9.18235 17.4689 13.0881 13.4284 17.9703 12.7229C19.2183 12.5433 20.4534 12.569 21.6626 12.7999C21.3457 10.1896 21.9795 7.58568 23.4861 5.39868C25.1351 2.99361 27.6247 1.371 30.5087 0.82585C30.6898 0.793783 30.8708 0.761715 31.0519 0.736061C33.91 0.338424 36.8199 1.20425 39.0315 3.10906C41.3206 5.08442 42.6398 7.94484 42.6398 10.9528V65.6599C42.6398 71.0216 38.5077 75.4149 33.2311 75.6714C33.05 75.6778 32.8754 75.6842 32.6944 75.6842H32.6814ZM23.2921 60.2534C23.5185 60.2534 23.7448 60.3431 23.9129 60.5099C24.1586 60.7536 24.2362 61.1192 24.1069 61.4399C23.6801 62.5109 23.4603 63.6397 23.4603 64.8005C23.4603 69.848 27.5988 73.9526 32.6879 73.9526C32.8431 73.9526 32.9918 73.9526 33.1405 73.9398C37.4795 73.7345 40.8809 70.0981 40.8809 65.6599V10.9592C40.8809 8.4515 39.788 6.07209 37.874 4.42382C36.0181 2.82686 33.6773 2.12779 31.2847 2.46129C31.1295 2.48053 30.9807 2.50619 30.8256 2.53825C28.4071 2.99361 26.3055 4.35969 24.9217 6.37994C23.5379 8.4002 23.027 10.8373 23.4926 13.236C23.5314 13.4156 23.5702 13.5951 23.6155 13.7747C23.6931 14.0826 23.6025 14.4096 23.3633 14.6213C23.1305 14.8394 22.7942 14.9099 22.4903 14.8073C21.1065 14.3519 19.6645 14.2301 18.2095 14.4353C14.1098 15.0253 10.8248 18.4181 10.398 22.5035C10.1911 24.5109 10.6244 26.4734 11.6525 28.1859C11.8142 28.4552 11.8207 28.7823 11.6655 29.0581C11.5103 29.3275 11.2258 29.5006 10.9089 29.5006C5.85213 29.5263 1.73947 33.6309 1.73947 38.6463C1.73947 43.3923 5.32835 47.3109 10.0812 47.7534C10.3463 47.7791 10.5856 47.9202 10.7278 48.1447C10.8701 48.3691 10.9089 48.6385 10.8248 48.8886C10.508 49.8314 10.3463 50.8127 10.3463 51.8004C10.3463 56.8478 14.4848 60.9524 19.5739 60.9524C20.7314 60.9524 21.876 60.7344 22.9688 60.3111C23.0723 60.2726 23.1822 60.2534 23.2857 60.2534H23.2921Z" fill="white"/>
<path d="M31.7891 39.48C31.2847 39.48 30.7738 39.4223 30.2694 39.3069C26.8099 38.5116 24.5725 35.1766 25.1674 31.7069C25.2515 31.2387 25.6977 30.918 26.1762 31.0014C26.6482 31.0848 26.9715 31.5273 26.8875 32.0019C26.4478 34.5673 28.1032 37.0301 30.6639 37.6201C31.886 37.9023 33.1599 37.7163 34.2528 37.0942C34.6731 36.8569 35.2033 36.998 35.4426 37.4149C35.6819 37.8318 35.5396 38.3577 35.1193 38.595C34.0976 39.1786 32.9465 39.4736 31.7891 39.4736V39.48Z" fill="white"/>
<path d="M33.5285 58.4897C33.3604 58.4897 33.1923 58.4383 33.0371 58.3421C32.6362 58.0728 32.5327 57.534 32.8043 57.1428C34.2786 54.9943 33.8001 52.0633 31.7179 50.4792C30.7221 49.7224 29.4805 49.3632 28.2325 49.4851C27.754 49.5236 27.3272 49.1772 27.2819 48.7026C27.2367 48.228 27.5923 47.8048 28.0708 47.7599C29.7586 47.6059 31.4334 48.0805 32.7784 49.1067C35.5913 51.2488 36.238 55.2059 34.2463 58.1177C34.0782 58.3614 33.8001 58.4961 33.5221 58.4961L33.5285 58.4897Z" fill="white"/>
<path d="M9.73847 50.0623C9.62207 50.0623 9.49921 50.0366 9.38281 49.9853C8.9431 49.7929 8.74264 49.2799 8.9431 48.8437C9.635 47.3045 10.8701 46.0923 12.435 45.4318C15.6941 44.0464 19.4963 45.4318 21.0742 48.5744C21.2875 49.0041 21.1129 49.5236 20.6797 49.7352C20.2464 49.9469 19.7227 49.7737 19.5093 49.3504C18.3388 47.0223 15.5324 46.0026 13.114 47.0287C11.9565 47.5161 11.0447 48.414 10.5338 49.5556C10.3916 49.8763 10.0683 50.0687 9.73847 50.0687V50.0623Z" fill="white"/>
<path d="M20.2206 37.928C18.785 37.928 17.3559 37.4662 16.1661 36.5747C15.7846 36.2861 15.707 35.741 15.998 35.3626C16.289 34.9842 16.8386 34.9072 17.2201 35.1958C18.6686 36.2797 20.5956 36.4977 22.251 35.7666C23.4603 35.2279 24.385 34.253 24.857 33.028C25.3291 31.7967 25.2903 30.4626 24.7471 29.2633C24.5531 28.8272 24.7471 28.3141 25.1868 28.1217C25.6265 27.9229 26.1438 28.1217 26.3378 28.5578C27.0685 30.1805 27.1267 31.9891 26.4866 33.6502C25.8464 35.3113 24.5984 36.626 22.9624 37.3507C22.0829 37.742 21.1453 37.9344 20.2141 37.9344L20.2206 37.928Z" fill="white"/>
<path d="M22.542 24.7354C22.2381 24.7354 21.9471 24.5815 21.7855 24.3057C21.5462 23.8952 21.6885 23.3629 22.1023 23.1256C23.6737 22.2213 24.6307 20.5474 24.5854 18.7516C24.5531 17.1097 23.6995 15.6026 22.3028 14.7111C21.8954 14.4545 21.779 13.9158 22.0377 13.5118C22.2963 13.1077 22.8395 12.9923 23.2469 13.2488C25.1351 14.4481 26.2861 16.4876 26.3314 18.7067C26.3896 21.131 25.1027 23.4014 22.9753 24.6199C22.8395 24.6969 22.6843 24.7354 22.542 24.7354Z" fill="white"/>
<path d="M56.8336 75.519C56.6525 75.519 56.4779 75.519 56.2969 75.5061C51.0203 75.256 46.8882 70.8563 46.8882 65.4946V10.7939C46.8882 7.78595 48.2009 4.92553 50.4965 2.95017C52.708 1.04536 55.6114 0.179537 58.4761 0.577174C58.6571 0.602828 58.8382 0.634895 59.0193 0.666963C61.8968 1.21211 64.3929 2.83473 66.0418 5.23979C67.542 7.43321 68.1822 10.0371 67.8654 12.641C69.0746 12.4101 70.3097 12.378 71.5577 12.564C76.4399 13.2695 80.3456 17.31 80.8564 22.1714C81.0569 24.0891 80.7595 25.9811 79.9964 27.7063C85.3636 28.4054 89.5279 32.9846 89.5279 38.4938C89.5279 44.003 85.7709 48.2167 80.6366 49.1787C80.8241 49.9868 80.9211 50.8141 80.9211 51.6479C80.9211 57.6509 76.0001 62.5316 69.9475 62.5316C69.1392 62.5316 68.3374 62.4418 67.555 62.2687C67.7296 63.0447 67.8201 63.84 67.8201 64.6416C67.8201 70.6447 62.8991 75.5254 56.8465 75.5254L56.8336 75.519ZM57.0664 2.2062C55.0877 2.2062 53.1995 2.91169 51.641 4.25211C49.7334 5.90038 48.6341 8.27979 48.6341 10.7875V65.4946C48.6341 69.9264 52.0355 73.5628 56.3809 73.7745C56.5297 73.7809 56.6849 73.7873 56.8336 73.7873C61.9227 73.7873 66.0612 69.6827 66.0612 64.6352C66.0612 63.4808 65.8414 62.3456 65.4146 61.2746C65.2852 60.9539 65.3628 60.5883 65.6086 60.3446C65.8543 60.1009 66.2229 60.0239 66.5462 60.1522C67.639 60.5755 68.7771 60.7935 69.9411 60.7935C75.0302 60.7935 79.1687 56.6889 79.1687 51.6415C79.1687 50.6538 79.007 49.679 78.6902 48.7298C78.6061 48.4796 78.6385 48.2038 78.7872 47.9858C78.9359 47.7677 79.1687 47.6202 79.4338 47.5946C84.1867 47.152 87.7756 43.2334 87.7756 38.4874C87.7756 33.4656 83.6629 29.3674 78.6061 29.3417C78.2893 29.3417 78.0047 29.175 77.8495 28.8992C77.6944 28.6298 77.7008 28.2963 77.8625 28.027C78.8971 26.3146 79.3304 24.352 79.117 22.3446C78.6902 18.2592 75.4052 14.8665 71.3055 14.2764C69.8506 14.0648 68.4085 14.193 67.0247 14.6484C66.7208 14.751 66.3845 14.6741 66.1517 14.4624C65.919 14.2443 65.822 13.9237 65.8996 13.6158C65.9448 13.4362 65.9901 13.2567 66.0224 13.0707C66.4815 10.6784 65.9707 8.24131 64.5869 6.22106C63.203 4.2008 61.1079 2.83473 58.683 2.37937C58.5278 2.3473 58.3791 2.32806 58.2239 2.30241C57.8359 2.2511 57.4414 2.21903 57.0599 2.21903L57.0664 2.2062Z" fill="white"/>
<path d="M57.726 39.3147C56.5685 39.3147 55.4239 39.0133 54.3957 38.4361C53.9754 38.1988 53.8332 37.6665 54.0724 37.256C54.3117 36.8391 54.8484 36.698 55.2623 36.9353C56.3551 37.5574 57.629 37.7434 58.8511 37.4612C61.4118 36.8712 63.0672 34.402 62.6275 31.843C62.5435 31.3748 62.8668 30.9259 63.3388 30.8425C63.8109 30.7591 64.2635 31.0798 64.3476 31.548C64.9425 35.0113 62.7051 38.3527 59.2456 39.148C58.7412 39.2634 58.2303 39.3211 57.726 39.3211V39.3147Z" fill="white"/>
<path d="M55.993 58.3244C55.7149 58.3244 55.4368 58.1897 55.2687 57.9459C53.2771 55.0342 53.9237 51.0771 56.7366 48.935C58.0816 47.9088 59.7564 47.4342 61.4442 47.5881C61.9227 47.633 62.2783 48.0563 62.2331 48.5309C62.1878 49.0055 61.761 49.3519 61.2825 49.3134C60.0345 49.1979 58.7929 49.5507 57.7971 50.3075C55.7149 51.8916 55.2364 54.8226 56.7107 56.9711C56.9823 57.3687 56.8789 57.9075 56.4779 58.1704C56.3292 58.273 56.1546 58.3179 55.9865 58.3179L55.993 58.3244Z" fill="white"/>
<path d="M79.783 49.897C79.4468 49.897 79.1299 49.7046 78.9876 49.3839C78.4768 48.2487 77.5586 47.3508 76.4075 46.857C73.9891 45.8308 71.1826 46.857 70.0122 49.1787C69.7988 49.6084 69.275 49.7816 68.8418 49.5699C68.4085 49.3583 68.2339 48.8388 68.4473 48.4091C70.0316 45.2665 73.8274 43.8811 77.0865 45.2665C78.6449 45.9271 79.8865 47.1392 80.5784 48.6784C80.7724 49.1146 80.5784 49.6276 80.1387 49.82C80.0223 49.8714 79.9059 49.897 79.783 49.897Z" fill="white"/>
<path d="M69.3009 37.7627C68.3697 37.7627 67.4321 37.5703 66.5527 37.179C63.1772 35.6783 61.664 31.734 63.1772 28.3861C63.3712 27.95 63.895 27.7576 64.3282 27.95C64.7679 28.1424 64.9619 28.6555 64.7679 29.0916C63.6492 31.5672 64.7679 34.4854 67.264 35.5949C68.9194 36.3324 70.8464 36.1144 72.2949 35.0241C72.6829 34.7355 73.226 34.8124 73.517 35.1908C73.808 35.5692 73.7304 36.1144 73.3489 36.403C72.1591 37.2945 70.7365 37.7562 69.2944 37.7562L69.3009 37.7627Z" fill="white"/>
<path d="M66.9795 24.5701C66.8307 24.5701 66.682 24.5316 66.5462 24.4546C64.4187 23.2361 63.1319 20.9657 63.1901 18.5414C63.2354 16.3287 64.3929 14.2828 66.2746 13.0835C66.682 12.827 67.2187 12.9424 67.4838 13.3465C67.7425 13.7505 67.6261 14.2828 67.2187 14.5458C65.822 15.4308 64.9684 16.9444 64.9361 18.5863C64.8908 20.3821 65.8478 22.0624 67.4192 22.9667C67.8395 23.204 67.9818 23.7363 67.736 24.1468C67.5744 24.4226 67.2834 24.5765 66.9795 24.5765V24.5701Z" fill="white"/>
<path d="M32.6814 75.6842C26.6288 75.6842 21.7079 70.8036 21.7079 64.8005C21.7079 63.9988 21.7984 63.2036 21.973 62.4275C21.1905 62.6007 20.3887 62.6905 19.5804 62.6905C13.5278 62.6905 8.60684 57.8098 8.60684 51.8068C8.60684 50.973 8.70384 50.1521 8.89136 49.3376C3.75054 48.3756 0 43.9502 0 38.6527C0 33.3551 4.16439 28.5707 9.53154 27.8652C8.7685 26.1399 8.47104 24.2544 8.6715 22.3303C9.18235 17.4689 13.0881 13.4284 17.9703 12.7229C19.2183 12.5433 20.4534 12.569 21.6626 12.7999C21.3457 10.1896 21.9795 7.58568 23.4861 5.39868C25.1351 2.99361 27.6247 1.371 30.5087 0.82585C30.6898 0.793783 30.8708 0.761715 31.0519 0.736061C33.91 0.338424 36.8199 1.20425 39.0315 3.10906C41.3206 5.08442 42.6398 7.94484 42.6398 10.9528V65.6599C42.6398 71.0216 38.5077 75.4149 33.2311 75.6714C33.05 75.6778 32.8754 75.6842 32.6944 75.6842H32.6814ZM23.2921 60.2534C23.5185 60.2534 23.7448 60.3431 23.9129 60.5099C24.1586 60.7536 24.2362 61.1192 24.1069 61.4399C23.6801 62.5109 23.4603 63.6397 23.4603 64.8005C23.4603 69.848 27.5988 73.9526 32.6879 73.9526C32.8431 73.9526 32.9918 73.9526 33.1405 73.9398C37.4795 73.7345 40.8809 70.0981 40.8809 65.6599V10.9592C40.8809 8.4515 39.788 6.07209 37.874 4.42382C36.0181 2.82686 33.6773 2.12779 31.2847 2.46129C31.1295 2.48053 30.9807 2.50619 30.8256 2.53825C28.4071 2.99361 26.3055 4.35969 24.9217 6.37994C23.5379 8.4002 23.027 10.8373 23.4926 13.236C23.5314 13.4156 23.5702 13.5951 23.6155 13.7747C23.6931 14.0826 23.6025 14.4096 23.3633 14.6213C23.1305 14.8394 22.7942 14.9099 22.4903 14.8073C21.1065 14.3519 19.6645 14.2301 18.2095 14.4353C14.1098 15.0253 10.8248 18.4181 10.398 22.5035C10.1911 24.5109 10.6244 26.4734 11.6525 28.1859C11.8142 28.4552 11.8207 28.7823 11.6655 29.0581C11.5103 29.3275 11.2258 29.5006 10.9089 29.5006C5.85213 29.5263 1.73947 33.6309 1.73947 38.6463C1.73947 43.3923 5.32835 47.3109 10.0812 47.7534C10.3463 47.7791 10.5856 47.9202 10.7278 48.1447C10.8701 48.3691 10.9089 48.6385 10.8248 48.8886C10.508 49.8314 10.3463 50.8127 10.3463 51.8004C10.3463 56.8478 14.4848 60.9524 19.5739 60.9524C20.7314 60.9524 21.876 60.7344 22.9688 60.3111C23.0723 60.2726 23.1822 60.2534 23.2857 60.2534H23.2921Z" stroke="white" stroke-width="1.5" stroke-miterlimit="10"/>
<path d="M31.7891 39.48C31.2847 39.48 30.7738 39.4223 30.2694 39.3069C26.8099 38.5116 24.5725 35.1766 25.1674 31.7069C25.2515 31.2387 25.6977 30.918 26.1762 31.0014C26.6482 31.0848 26.9715 31.5273 26.8875 32.0019C26.4478 34.5673 28.1032 37.0301 30.6639 37.6201C31.886 37.9023 33.1599 37.7163 34.2528 37.0942C34.6731 36.8569 35.2033 36.998 35.4426 37.4149C35.6819 37.8318 35.5396 38.3577 35.1193 38.595C34.0976 39.1786 32.9465 39.4736 31.7891 39.4736V39.48Z" stroke="white" stroke-width="1.5" stroke-miterlimit="10"/>
<path d="M33.5285 58.4897C33.3604 58.4897 33.1923 58.4383 33.0371 58.3421C32.6362 58.0728 32.5327 57.534 32.8043 57.1428C34.2786 54.9943 33.8001 52.0633 31.7179 50.4792C30.7221 49.7224 29.4805 49.3632 28.2325 49.4851C27.754 49.5236 27.3272 49.1772 27.2819 48.7026C27.2367 48.228 27.5923 47.8048 28.0708 47.7599C29.7586 47.6059 31.4334 48.0805 32.7784 49.1067C35.5913 51.2488 36.238 55.2059 34.2463 58.1177C34.0782 58.3614 33.8001 58.4961 33.5221 58.4961L33.5285 58.4897Z" stroke="white" stroke-width="1.5" stroke-miterlimit="10"/>
<path d="M9.73847 50.0623C9.62207 50.0623 9.49921 50.0366 9.38281 49.9853C8.9431 49.7929 8.74264 49.2799 8.9431 48.8437C9.635 47.3045 10.8701 46.0923 12.435 45.4318C15.6941 44.0464 19.4963 45.4318 21.0742 48.5744C21.2875 49.0041 21.1129 49.5236 20.6797 49.7352C20.2464 49.9469 19.7227 49.7737 19.5093 49.3504C18.3388 47.0223 15.5324 46.0026 13.114 47.0287C11.9565 47.5161 11.0447 48.414 10.5338 49.5556C10.3916 49.8763 10.0683 50.0687 9.73847 50.0687V50.0623Z" stroke="white" stroke-width="1.5" stroke-miterlimit="10"/>
<path d="M20.2206 37.928C18.785 37.928 17.3559 37.4662 16.1661 36.5747C15.7846 36.2861 15.707 35.741 15.998 35.3626C16.289 34.9842 16.8386 34.9072 17.2201 35.1958C18.6686 36.2797 20.5956 36.4977 22.251 35.7666C23.4603 35.2279 24.385 34.253 24.857 33.028C25.3291 31.7967 25.2903 30.4626 24.7471 29.2633C24.5531 28.8272 24.7471 28.3141 25.1868 28.1217C25.6265 27.9229 26.1438 28.1217 26.3378 28.5578C27.0685 30.1805 27.1267 31.9891 26.4866 33.6502C25.8464 35.3113 24.5984 36.626 22.9624 37.3507C22.0829 37.742 21.1453 37.9344 20.2141 37.9344L20.2206 37.928Z" stroke="white" stroke-width="1.5" stroke-miterlimit="10"/>
<path d="M22.542 24.7354C22.2381 24.7354 21.9471 24.5815 21.7855 24.3057C21.5462 23.8952 21.6885 23.3629 22.1023 23.1256C23.6737 22.2213 24.6307 20.5474 24.5854 18.7516C24.5531 17.1097 23.6995 15.6026 22.3028 14.7111C21.8954 14.4545 21.779 13.9158 22.0377 13.5118C22.2963 13.1077 22.8395 12.9923 23.2469 13.2488C25.1351 14.4481 26.2861 16.4876 26.3314 18.7067C26.3896 21.131 25.1027 23.4014 22.9753 24.6199C22.8395 24.6969 22.6843 24.7354 22.542 24.7354Z" stroke="white" stroke-width="1.5" stroke-miterlimit="10"/>
<path d="M56.8336 75.519C56.6525 75.519 56.4779 75.519 56.2969 75.5061C51.0203 75.256 46.8882 70.8563 46.8882 65.4946V10.7939C46.8882 7.78595 48.2009 4.92553 50.4965 2.95017C52.708 1.04536 55.6114 0.179537 58.4761 0.577174C58.6571 0.602828 58.8382 0.634895 59.0193 0.666963C61.8968 1.21211 64.3929 2.83473 66.0418 5.23979C67.542 7.43321 68.1822 10.0371 67.8654 12.641C69.0746 12.4101 70.3097 12.378 71.5577 12.564C76.4399 13.2695 80.3456 17.31 80.8564 22.1714C81.0569 24.0891 80.7595 25.9811 79.9964 27.7063C85.3636 28.4054 89.5279 32.9846 89.5279 38.4938C89.5279 44.003 85.7709 48.2167 80.6366 49.1787C80.8241 49.9868 80.9211 50.8141 80.9211 51.6479C80.9211 57.6509 76.0001 62.5316 69.9475 62.5316C69.1392 62.5316 68.3374 62.4418 67.555 62.2687C67.7296 63.0447 67.8201 63.84 67.8201 64.6416C67.8201 70.6447 62.8991 75.5254 56.8465 75.5254L56.8336 75.519ZM57.0664 2.2062C55.0877 2.2062 53.1995 2.91169 51.641 4.25211C49.7334 5.90038 48.6341 8.27979 48.6341 10.7875V65.4946C48.6341 69.9264 52.0355 73.5628 56.3809 73.7745C56.5297 73.7809 56.6849 73.7873 56.8336 73.7873C61.9227 73.7873 66.0612 69.6827 66.0612 64.6352C66.0612 63.4808 65.8414 62.3456 65.4146 61.2746C65.2852 60.9539 65.3628 60.5883 65.6086 60.3446C65.8543 60.1009 66.2229 60.0239 66.5462 60.1522C67.639 60.5755 68.7771 60.7935 69.9411 60.7935C75.0302 60.7935 79.1687 56.6889 79.1687 51.6415C79.1687 50.6538 79.007 49.679 78.6902 48.7298C78.6061 48.4796 78.6385 48.2038 78.7872 47.9858C78.9359 47.7677 79.1687 47.6202 79.4338 47.5946C84.1867 47.152 87.7756 43.2334 87.7756 38.4874C87.7756 33.4656 83.6629 29.3674 78.6061 29.3417C78.2893 29.3417 78.0047 29.175 77.8495 28.8992C77.6944 28.6298 77.7008 28.2963 77.8625 28.027C78.8971 26.3146 79.3304 24.352 79.117 22.3446C78.6902 18.2592 75.4052 14.8665 71.3055 14.2764C69.8506 14.0648 68.4085 14.193 67.0247 14.6484C66.7208 14.751 66.3845 14.6741 66.1517 14.4624C65.919 14.2443 65.822 13.9237 65.8996 13.6158C65.9448 13.4362 65.9901 13.2567 66.0224 13.0707C66.4815 10.6784 65.9707 8.24131 64.5869 6.22106C63.203 4.2008 61.1079 2.83473 58.683 2.37937C58.5278 2.3473 58.3791 2.32806 58.2239 2.30241C57.8359 2.2511 57.4414 2.21903 57.0599 2.21903L57.0664 2.2062Z" stroke="white" stroke-width="1.5" stroke-miterlimit="10"/>
<path d="M57.726 39.3147C56.5685 39.3147 55.4239 39.0133 54.3957 38.4361C53.9754 38.1988 53.8332 37.6665 54.0724 37.256C54.3117 36.8391 54.8484 36.698 55.2623 36.9353C56.3551 37.5574 57.629 37.7434 58.8511 37.4612C61.4118 36.8712 63.0672 34.402 62.6275 31.843C62.5435 31.3748 62.8668 30.9259 63.3388 30.8425C63.8109 30.7591 64.2635 31.0798 64.3476 31.548C64.9425 35.0113 62.7051 38.3527 59.2456 39.148C58.7412 39.2634 58.2303 39.3211 57.726 39.3211V39.3147Z" stroke="white" stroke-width="1.5" stroke-miterlimit="10"/>
<path d="M55.993 58.3244C55.7149 58.3244 55.4368 58.1897 55.2687 57.9459C53.2771 55.0342 53.9237 51.0771 56.7366 48.935C58.0816 47.9088 59.7564 47.4342 61.4442 47.5881C61.9227 47.633 62.2783 48.0563 62.2331 48.5309C62.1878 49.0055 61.761 49.3519 61.2825 49.3134C60.0345 49.1979 58.7929 49.5507 57.7971 50.3075C55.7149 51.8916 55.2364 54.8226 56.7107 56.9711C56.9823 57.3687 56.8789 57.9075 56.4779 58.1704C56.3292 58.273 56.1546 58.3179 55.9865 58.3179L55.993 58.3244Z" stroke="white" stroke-width="1.5" stroke-miterlimit="10"/>
<path d="M79.783 49.897C79.4468 49.897 79.1299 49.7046 78.9876 49.3839C78.4768 48.2487 77.5586 47.3508 76.4075 46.857C73.9891 45.8308 71.1826 46.857 70.0122 49.1787C69.7988 49.6084 69.275 49.7816 68.8418 49.5699C68.4085 49.3583 68.2339 48.8388 68.4473 48.4091C70.0316 45.2665 73.8274 43.8811 77.0865 45.2665C78.6449 45.9271 79.8865 47.1392 80.5784 48.6784C80.7724 49.1146 80.5784 49.6276 80.1387 49.82C80.0223 49.8714 79.9059 49.897 79.783 49.897Z" stroke="white" stroke-width="1.5" stroke-miterlimit="10"/>
<path d="M69.3009 37.7627C68.3697 37.7627 67.4321 37.5703 66.5527 37.179C63.1772 35.6783 61.664 31.734 63.1772 28.3861C63.3712 27.95 63.895 27.7576 64.3282 27.95C64.7679 28.1424 64.9619 28.6555 64.7679 29.0916C63.6492 31.5672 64.7679 34.4854 67.264 35.5949C68.9194 36.3324 70.8464 36.1144 72.2949 35.0241C72.6829 34.7355 73.226 34.8124 73.517 35.1908C73.808 35.5692 73.7304 36.1144 73.3489 36.403C72.1591 37.2945 70.7365 37.7562 69.2944 37.7562L69.3009 37.7627Z" stroke="white" stroke-width="1.5" stroke-miterlimit="10"/>
<path d="M66.9795 24.5701C66.8307 24.5701 66.682 24.5316 66.5462 24.4546C64.4187 23.2361 63.1319 20.9657 63.1901 18.5414C63.2354 16.3287 64.3929 14.2828 66.2746 13.0835C66.682 12.827 67.2187 12.9424 67.4838 13.3465C67.7425 13.7505 67.6261 14.2828 67.2187 14.5458C65.822 15.4308 64.9684 16.9444 64.9361 18.5863C64.8908 20.3821 65.8478 22.0624 67.4192 22.9667C67.8395 23.204 67.9818 23.7363 67.736 24.1468C67.5744 24.4226 67.2834 24.5765 66.9795 24.5765V24.5701Z" stroke="white" stroke-width="1.5" stroke-miterlimit="10"/>
</g>
<defs>
<clipPath id="clip0_2061_1044">
<rect width="90" height="76" fill="white"/>
</clipPath>
</defs>
</svg>
