<svg width="59" height="78" viewBox="0 0 59 78" fill="none" xmlns="http://www.w3.org/2000/svg">
<g clip-path="url(#clip0_2061_1040)">
<path d="M1.25662 78C0.563781 78 0 77.4372 0 76.7456V7.14638C0 5.29537 0.720009 3.53929 2.04455 2.19002C3.40986 0.800069 5.31177 0 7.25443 0H57.7434C58.4362 0 59 0.562761 59 1.25435V76.7524C59 77.444 58.4362 78.0068 57.7434 78.0068H1.25662V78ZM11.9277 75.4981H56.4936V14.2521H11.9277V75.4981ZM2.51324 75.4981H9.41446V14.2521H7.13896C6.06574 14.2521 5.03327 14.0216 4.08232 13.5673L2.51324 12.8214V75.4981ZM7.25443 2.50869C5.97744 2.50869 4.7344 3.03077 3.83099 3.9461C2.95475 4.8411 2.48607 6.00052 2.50645 7.21418C2.554 9.70932 4.63251 11.7434 7.13217 11.7434H56.48V2.50869H7.25443Z" fill="#1D386D"/>
<path d="M29.8464 47.6312C29.1536 47.6312 28.5898 47.0685 28.5898 46.3769V40.7628H22.9656C22.2727 40.7628 21.709 40.2001 21.709 39.5085V31.0264C21.709 30.3348 22.2727 29.7721 22.9656 29.7721H28.5898V24.158C28.5898 23.4664 29.1536 22.9037 29.8464 22.9037H38.3439C39.0367 22.9037 39.6005 23.4664 39.6005 24.158V29.7721H45.2247C45.9176 29.7721 46.4813 30.3348 46.4813 31.0264V39.5085C46.4813 40.2001 45.9176 40.7628 45.2247 40.7628H39.6005V46.3769C39.6005 47.0685 39.0367 47.6312 38.3439 47.6312H29.8464ZM24.2222 38.2542H29.8464C30.5393 38.2542 31.103 38.8169 31.103 39.5085V45.1226H37.0873V39.5085C37.0873 38.8169 37.6511 38.2542 38.3439 38.2542H43.9681V32.2808H38.3439C37.6511 32.2808 37.0873 31.718 37.0873 31.0264V25.4124H31.103V31.0264C31.103 31.718 30.5393 32.2808 29.8464 32.2808H24.2222V38.2542Z" fill="#1D386D"/>
<path d="M22.5648 57.822C21.872 57.822 21.3082 57.2592 21.3082 56.5676C21.3082 55.876 21.872 55.3133 22.5648 55.3133H45.6255C46.3183 55.3133 46.8821 55.876 46.8821 56.5676C46.8821 57.2592 46.3183 57.822 45.6255 57.822H22.5648Z" fill="#1D386D"/>
<path d="M22.5648 67.2262C21.872 67.2262 21.3082 66.6634 21.3082 65.9718C21.3082 65.2802 21.872 64.7175 22.5648 64.7175H45.6255C46.3183 64.7175 46.8821 65.2802 46.8821 65.9718C46.8821 66.6634 46.3183 67.2262 45.6255 67.2262H22.5648Z" fill="#1D386D"/>
</g>
<defs>
<clipPath id="clip0_2061_1040">
<rect width="59" height="78" fill="white"/>
</clipPath>
</defs>
</svg>
