<svg width="72" height="72" viewBox="0 0 72 72" fill="none" xmlns="http://www.w3.org/2000/svg">
<g clip-path="url(#clip0_2061_1078)">
<path d="M9.83241 72C9.19402 72 8.67455 71.4805 8.67455 70.8421V64.2142C8.67455 63.0501 8.39916 61.8922 7.87969 60.8533L1.03894 47.1718C0.363004 45.8136 0 44.2928 0 42.7719V23.1321C0 20.1029 2.46592 17.637 5.49513 17.637C8.52434 17.637 10.9903 20.1029 10.9903 23.1321V39.0542L12.6488 37.6711C13.0056 37.3706 13.3999 37.1203 13.8129 36.9138C14.6579 36.4944 15.5528 36.2879 16.4729 36.2879C18.6634 36.2879 20.6725 37.5021 21.7114 39.4611L28.6335 52.4979C29.3846 53.9124 29.7789 55.5083 29.7789 57.1106V70.8547C29.7789 71.493 29.2594 72.0125 28.621 72.0125H9.83241V72ZM5.49513 19.9527C3.7427 19.9527 2.31572 21.3797 2.31572 23.1321V42.7719C2.31572 43.936 2.5911 45.0939 3.11057 46.1328L9.95132 59.8206C10.6273 61.1787 10.9903 62.6996 10.9903 64.2204V69.6905H27.4757V57.1043C27.4757 55.8776 27.169 54.6572 26.5994 53.5807L19.6773 40.5438C19.0452 39.3484 17.8122 38.6036 16.4666 38.6036C15.9033 38.6036 15.3526 38.735 14.8456 38.9854C13.9318 39.436 13.2684 40.2184 12.9743 41.1947C12.6801 42.1711 12.799 43.1912 13.306 44.0675L18.0688 52.2976C18.388 52.8484 18.2003 53.5556 17.6495 53.8748C17.468 53.9812 17.274 54.0313 17.0675 54.0313C16.6544 54.0313 16.2726 53.8122 16.0661 53.4555L8.83727 41.0633C8.73713 40.888 8.68081 40.6878 8.68081 40.4812V23.1321C8.68081 21.3797 7.25382 19.9527 5.50139 19.9527H5.49513Z" fill="#1D386D"/>
<path d="M43.3727 72C42.7344 72 42.2149 71.4805 42.2149 70.8421V57.0981C42.2149 55.4958 42.6092 53.8999 43.3602 52.4854L50.2823 39.4485C51.3213 37.4896 53.3303 36.2754 55.5209 36.2754C56.4471 36.2754 57.3421 36.4882 58.1808 36.9012C58.5939 37.1078 58.9882 37.3644 59.3449 37.6585L61.0035 39.0417V23.1196C61.0035 20.0904 63.4694 17.6245 66.4986 17.6245C69.5278 17.6245 71.9937 20.0904 71.9937 23.1196V42.7594C71.9937 44.2802 71.637 45.8011 70.9548 47.1592L64.114 60.847C63.5946 61.8859 63.3192 63.0501 63.3192 64.2079V70.8359C63.3192 71.4743 62.7997 71.9937 62.1613 71.9937H43.3665L43.3727 72ZM55.5396 38.6036C54.194 38.6036 52.9673 39.3484 52.3289 40.5438L45.4068 53.5807C44.831 54.6634 44.5306 55.8839 44.5306 57.1043V69.6905H61.016V64.2204C61.016 62.6996 61.3727 61.1787 62.0549 59.8206L68.8957 46.1328C69.4152 45.0939 69.6905 43.9298 69.6905 42.7719V23.1321C69.6905 21.3797 68.2636 19.9527 66.5111 19.9527C64.7587 19.9527 63.3317 21.3797 63.3317 23.1321V40.4812C63.3317 40.6878 63.2754 40.888 63.1752 41.0633L55.9464 53.4555C55.7399 53.8122 55.3581 54.0313 54.9451 54.0313C54.7448 54.0313 54.5445 53.975 54.3693 53.8748C53.8185 53.5556 53.6307 52.8484 53.9499 52.2976L58.7128 44.0675C59.2197 43.185 59.3387 42.1648 59.0445 41.1947C58.7503 40.2184 58.0869 39.436 57.1732 38.9854C56.6599 38.7288 56.1154 38.6036 55.5522 38.6036H55.5396Z" fill="#1D386D"/>
<path d="M24.4339 34.1224C23.7955 34.1224 23.2761 33.6029 23.2761 32.9645V10.9903H21.5424C20.904 10.9903 20.3846 10.4708 20.3846 9.83241V1.15786C20.3846 0.519471 20.904 0 21.5424 0H50.4576C51.096 0 51.6154 0.519471 51.6154 1.15786V9.83241C51.6154 10.4708 51.096 10.9903 50.4576 10.9903H48.7239V32.9645C48.7239 33.6029 48.2044 34.1224 47.5661 34.1224H24.4339ZM25.5918 31.8067H46.4145V10.9903H25.5918V31.8129V31.8067ZM41.977 8.67455H49.2997V2.31572H41.977V8.67455ZM32.3387 8.67455H39.6613V2.31572H32.3387V8.67455ZM22.7003 8.67455H30.0229V2.31572H22.7003V8.67455Z" fill="#1D386D"/>
<path d="M36 26.8936C35.3616 26.8936 34.8421 26.3741 34.8421 25.7357V22.5563H31.6627C31.0243 22.5563 30.5049 22.0369 30.5049 21.3985C30.5049 20.7601 31.0243 20.2406 31.6627 20.2406H34.8421V17.0612C34.8421 16.4228 35.3616 15.9033 36 15.9033C36.6384 15.9033 37.1579 16.4228 37.1579 17.0612V20.2406H40.3373C40.9757 20.2406 41.4951 20.7601 41.4951 21.3985C41.4951 22.0369 40.9757 22.5563 40.3373 22.5563H37.1579V25.7357C37.1579 26.3741 36.6384 26.8936 36 26.8936Z" fill="#1D386D"/>
</g>
<defs>
<clipPath id="clip0_2061_1078">
<rect width="72" height="72" fill="white"/>
</clipPath>
</defs>
</svg>
