<svg width="81" height="81" viewBox="0 0 81 81" fill="none" xmlns="http://www.w3.org/2000/svg">
<g clip-path="url(#clip0_2063_862)">
<path d="M17.818 0H63.1444C63.4822 0.13266 63.9247 0.153843 64.2854 0.233496C64.6944 0.323909 65.0852 0.434651 65.4819 0.567969C68.3311 1.52254 70.6729 3.59012 71.9733 6.29953C72.4503 7.29562 72.7742 8.35823 72.934 9.45121C73.1159 10.7018 73.0768 13.2009 73.0586 14.5455C73.0321 16.5005 73.1152 18.6843 73.0527 20.6206C74.4338 20.7087 75.6927 21.1877 76.6225 22.2431C77.972 23.7746 77.8351 25.2896 77.8324 27.17L77.8284 30.1782C79.3029 30.1085 80.2766 29.9501 81 31.4096V38.4701C80.7453 38.9698 80.4625 39.4566 79.8787 39.6259C79.4156 39.7604 78.1753 39.7462 77.7019 39.7034L75.1777 72.1505C75.0955 73.214 74.9954 75.277 74.7613 76.2128C74.435 77.4792 73.727 78.6143 72.7335 79.4646C72.1228 79.9903 71.3006 80.4831 70.5183 80.7034C70.3134 80.7607 69.6406 80.915 69.4808 81H11.5634C11.3571 80.9055 10.7374 80.7769 10.4749 80.6986C9.59269 80.4344 8.7238 79.9139 8.05551 79.2886C7.13998 78.4379 6.49728 77.3348 6.20876 76.119C6.06598 75.508 6.02873 74.8111 5.97865 74.1818L5.78727 71.7526L3.53435 42.8054C3.45602 41.8008 3.35263 40.7318 3.31555 39.7311C2.70677 39.6853 2.07681 39.7557 1.46732 39.6995C0.656879 39.6247 0.349365 39.1537 0 38.5124V31.3722C0.233325 31.0234 0.170439 30.964 0.540189 30.5873C1.10099 30.016 2.3458 30.1717 3.16509 30.1835C3.18585 29.1275 3.1631 28.0671 3.17219 27.0116C3.19238 26.185 3.11801 25.3215 3.26773 24.5045C3.68187 22.2445 5.65295 20.6582 7.92254 20.6427C8.00334 18.2527 7.89794 15.7387 7.93982 13.3388C7.96181 12.0798 7.8748 10.7615 8.05313 9.51623C8.21268 8.36463 8.55614 7.24614 9.07038 6.20346C10.3555 3.55857 12.645 1.53749 15.4289 0.590442C15.8714 0.440311 16.3241 0.319605 16.7799 0.217293C17.1139 0.142313 17.5007 0.12151 17.818 0ZM71.7613 74.9982C71.9108 73.9983 71.9876 72.2909 72.0698 71.242L74.5291 39.7208L8.72087 39.7137C8.13832 39.7141 7.02817 39.7485 6.48063 39.7023C6.6083 42.2746 6.88983 45.11 7.09114 47.6978L9.11887 73.7523C9.15957 74.2728 9.18239 74.9412 9.30488 75.4407C9.62619 76.7511 10.8356 77.7576 12.1883 77.8142C13.1415 77.8537 14.104 77.8363 15.0597 77.8355L65.0167 77.8359C66.2143 77.8355 67.4246 77.8458 68.6218 77.8213C69.5647 77.8019 70.3771 77.446 71.0087 76.7265C71.4358 76.2444 71.6992 75.6393 71.7613 74.9982ZM17.4533 20.6165C19.1504 20.6833 21.0626 20.6422 22.7788 20.6422L60.5325 20.642C61.5046 20.6419 62.5626 20.6207 63.528 20.6454L63.5328 15.1461C63.5328 14.4066 63.53 13.6629 63.5316 12.9235C63.5336 11.9293 63.307 11.1559 62.5907 10.4348C62.1121 9.95624 61.486 9.65296 60.8137 9.57386C60.2758 9.50579 59.5714 9.51987 59.0216 9.51991L21.2461 9.51904C21.0621 9.51983 20.6849 9.52066 20.514 9.54693C19.99 9.59897 19.652 9.63698 19.1771 9.8735C17.0895 10.9131 17.4494 13.2117 17.4516 15.1678L17.4533 20.6165ZM6.33683 30.1753C7.06579 30.149 7.93828 30.178 8.68432 30.1781L72.991 30.1776C73.534 30.1778 74.1138 30.1675 74.6541 30.1803L74.6671 27.2184C74.6683 26.3207 74.8372 24.9133 74.1652 24.2594C73.9224 24.0248 73.604 23.8843 73.267 23.8629C72.2976 23.8101 70.9161 23.8506 69.9258 23.8507L12.3991 23.852C10.9971 23.852 9.41475 23.8173 8.02367 23.8691L7.98162 23.8708C6.04996 23.9003 6.33493 25.6463 6.33513 27.0228L6.33683 30.1753ZM3.18969 33.35C3.14679 33.6546 3.16012 34.2285 3.16085 34.5508L3.16708 36.5324C4.09849 36.5039 5.15497 36.5311 6.09735 36.5313L77.7833 36.5339C77.8771 36.3924 77.8387 33.7518 77.8407 33.3759L5.01982 33.3681C4.62566 33.3686 3.49278 33.4004 3.18969 33.35ZM69.8965 20.6405L69.8993 14.5444C69.8997 12.9751 70.0049 10.5627 69.6343 9.11297C69.2862 7.7546 68.5815 6.51397 67.5931 5.51935C65.7136 3.62004 63.7547 3.17757 61.2088 3.17569L23.9427 3.1765C22.339 3.17651 20.6208 3.14581 19.0256 3.1817C16.6816 3.27053 14.7868 4.00661 13.1718 5.75424C12.2672 6.73945 11.6319 7.94132 11.3275 9.24373C11.0809 10.2866 11.1132 11.2069 11.1016 12.2573C11.0708 15.0419 11.1483 17.8461 11.0942 20.6285C12.0579 20.6395 13.3494 20.6021 14.2873 20.6517L14.2914 15.5509C14.2914 14.2272 14.1966 12.2755 14.516 11.0484C14.8078 9.94726 15.3902 8.94477 16.2022 8.14584C17.1343 7.23605 18.3264 6.63872 19.6131 6.43657C20.6299 6.28023 23.1449 6.34284 24.2636 6.34383L50.8318 6.34529C53.8879 6.34525 56.946 6.3411 60.0021 6.34525C60.553 6.346 61.2163 6.38686 61.7483 6.51125C63.4573 6.92431 64.8546 7.88785 65.7785 9.39821C66.1827 10.0563 66.4588 10.7849 66.5924 11.5455C66.7657 12.5478 66.7131 14.7291 66.7032 15.8628C66.6901 17.3653 66.7514 19.1426 66.6973 20.6235C67.7635 20.6462 68.8298 20.6519 69.8965 20.6405Z" fill="#1D386D"/>
<path d="M33.0193 42.809C36.0599 42.5594 38.8772 43.7004 41.1229 45.6254C41.1546 45.6523 41.3132 45.7634 41.3507 45.7345C41.7103 45.4609 41.9942 45.1713 42.3668 44.9016C44.2937 43.4853 46.6347 42.7445 49.026 42.7939C51.9001 42.8624 54.6283 44.0746 56.6059 46.1613C58.5731 48.2282 59.6323 50.996 59.5469 53.8484C59.499 55.8259 58.9018 57.7517 57.8217 59.4088C56.9424 60.7642 56.1123 61.4413 54.9629 62.5053L44.0793 72.635C43.8535 72.8462 43.6261 73.0622 43.3951 73.2742C42.5412 74.0917 41.4599 75.3288 40.237 74.2416C39.4413 73.5344 38.6139 72.741 37.8243 72.005L32.9531 67.4673L28.4018 63.2373C27.2833 62.1987 25.943 61.07 25.0602 59.853C23.9984 58.3864 23.3298 56.6727 23.1181 54.8747C22.4836 49.1407 26.2095 43.9726 31.9162 42.9537C32.2821 42.8885 32.6502 42.8501 33.0193 42.809ZM41.3037 70.8809L46.0114 66.4928C46.4251 66.1028 46.8946 65.6978 47.2928 65.307C48.4798 64.1937 49.7102 63.0301 50.911 61.933C51.6023 61.3061 52.2861 60.6705 52.9613 60.0262C53.8425 59.202 54.4915 58.7112 55.1718 57.665C55.9161 56.5094 56.331 55.1729 56.3713 53.799C56.4386 51.7633 55.6839 49.7861 54.2779 48.3129C51.3591 45.2599 46.4757 45.2437 43.5221 48.0835C42.4301 49.1335 41.4279 50.5831 39.8945 48.9192C37.9833 46.8459 36.1374 45.8987 33.2906 46.0197C31.4252 46.0691 29.5572 46.9836 28.2822 48.3307C26.8829 49.8067 26.1353 51.7827 26.2071 53.8152C26.2786 55.9327 27.1834 57.7924 28.7311 59.2257L39.8897 69.5943C40.2659 69.9428 40.9232 70.5851 41.3037 70.8809Z" fill="#1D386D"/>
<path d="M40.9837 52.4495C41.0759 52.4376 41.1688 52.4313 41.2621 52.4313C42.9138 52.419 42.9359 54.0347 42.8825 55.2149C42.8545 55.8303 42.8782 56.5042 42.8754 57.1248C43.9342 57.1275 45.0222 57.101 46.0782 57.1457C46.5426 57.1655 46.9764 57.3538 47.277 57.7228C47.5468 58.0558 47.6694 58.4837 47.6172 58.9093C47.5725 59.327 47.3589 59.7078 47.0255 59.9633C46.8416 60.1033 46.6284 60.2002 46.4022 60.2469C45.9877 60.3335 43.314 60.3395 42.879 60.2829C42.8679 61.172 43.0249 63.4952 42.7089 64.1893C42.4779 64.6968 42.0741 64.9361 41.5702 65.1132C41.5006 65.1219 41.4302 65.1271 41.3598 65.1291C40.9291 65.1417 40.5115 64.98 40.2018 64.6806C40.0127 64.497 39.7885 64.1304 39.7644 63.8804C39.6584 62.7912 39.711 61.4196 39.7169 60.3213C38.9742 60.3015 36.6596 60.3699 36.1224 60.2303C35.8446 60.1603 35.59 60.0187 35.3838 59.8198C34.2903 58.7547 35.2722 56.9729 36.919 57.1224C37.6894 57.192 38.9004 57.1291 39.7098 57.1366C39.7141 56.2325 39.5528 53.9101 39.9372 53.2081C40.1729 52.7781 40.5265 52.5745 40.9837 52.4495Z" fill="#1D386D"/>
</g>
<defs>
<clipPath id="clip0_2063_862">
<rect width="81" height="81" fill="white"/>
</clipPath>
</defs>
</svg>
