<svg width="184" height="184" viewBox="0 0 184 184" fill="none" xmlns="http://www.w3.org/2000/svg">
<path d="M131.115 122.774C133.091 122.535 134.883 123.949 135.11 125.927C135.336 127.904 133.91 129.688 131.932 129.901C129.972 130.113 128.208 128.702 127.983 126.743C127.759 124.784 129.158 123.011 131.115 122.774Z" fill="white"/>
<path d="M12.1874 90.9336C11.7197 90.2795 11.0934 88.9275 10.738 88.1577C8.48019 83.2506 7.07378 77.995 6.57899 72.616C5.39741 59.9058 9.38077 47.2548 17.6314 37.5144C25.6448 28.0537 37.0624 22.1305 49.4116 21.0274C61.771 19.8873 74.0834 23.6502 83.6937 31.5049C86.6086 33.8776 88.8008 36.5791 91.4088 38.7695C98.3708 31.3554 104.635 26.3464 114.567 23.3275C126.571 19.6575 139.543 20.9249 150.61 26.8492C161.545 32.725 169.714 42.6851 173.336 54.5585C176.08 63.6723 176.016 73.401 173.153 82.4779C172.619 84.1754 171.637 86.8296 170.8 88.3876C173.273 88.4759 180.029 88.0583 181.837 88.7287C182.966 89.1476 183.521 90.1816 184 91.2094V92.7861C183.055 94.7007 182.359 95.5614 180.051 95.6099C177.951 95.654 175.843 95.6279 173.741 95.6261L166.583 95.6315C165.502 96.9639 164.439 98.3924 163.288 99.6529C161.801 101.283 160.18 102.869 158.617 104.433L151.467 111.573L147.805 115.243C146.881 116.177 145.831 117.365 144.744 118.068C142.63 119.437 139.445 117.781 139.438 115.204C139.432 113.614 139.904 112.909 141.006 111.833C144.352 108.458 147.715 105.099 151.069 101.737L154.698 98.0995C155.487 97.3089 156.397 96.343 157.259 95.6593C155.407 95.5524 152.975 95.6189 151.087 95.6189L140.095 95.6234C138.234 95.6261 135.598 95.8426 133.828 95.5228C133.063 95.3844 132.335 94.9954 131.822 94.4078C130.8 93.2363 128.754 87.6915 128.017 85.9647C126.241 81.8117 124.307 77.6618 122.752 73.4245C121.373 76.0243 119.764 79.8742 118.514 82.6315L108.261 105.261C107.493 106.96 106.657 109.608 104.761 110.215C103.787 110.527 102.726 110.431 101.824 109.949C100.628 109.297 100.217 108.071 99.732 106.883C99.2621 105.731 98.8039 104.574 98.3421 103.419L94.2713 93.2533C94.0305 92.6532 93.1033 90.2013 92.8266 89.8456L92.6954 89.8869C92.3297 90.6847 91.8437 92.4914 91.5795 93.3899L83.7227 120.107L82.3962 124.65C81.8764 126.441 81.5581 128.57 79.8217 129.547C78.0271 130.557 75.7772 129.795 74.8931 127.937C74.2123 126.392 73.6696 124.69 73.0998 123.084L56.8993 77.8599C56.6442 77.1461 56.025 75.25 55.664 74.6911C53.4033 79.8529 51.3769 85.1484 49.2417 90.3648C48.5292 92.106 47.6169 94.9406 46.6637 96.4607C46.2504 97.1202 45.6061 97.6584 44.8728 97.9252C43.5333 98.4121 29.1722 98.1489 26.7568 98.1399C28.1048 99.2459 30.2717 101.561 31.609 102.902L76.8752 148.176C78.6397 149.943 80.8773 152.376 82.907 153.679C85.7029 155.436 89.0098 156.199 92.2929 155.844C98.3214 155.249 101.15 151.689 105.125 147.717L114.426 138.411C116.487 136.347 119.323 132.353 122.493 135.047C123.231 135.669 123.685 136.562 123.753 137.525C123.844 138.804 123.33 139.641 122.491 140.536C121.533 141.558 120.477 142.581 119.484 143.573L108.803 154.242C106.82 156.222 104.97 158.171 102.611 159.704C94.1383 165.213 82.7978 164.039 75.5413 157.029C73.6591 155.21 71.8049 153.329 69.9461 151.466L20.3834 101.896C19.2952 100.798 18.2803 99.6152 17.222 98.4894C17.0417 98.2972 16.5106 98.1777 16.2492 98.1669C15.17 98.1229 14.0248 98.1444 12.94 98.1489L6.56222 98.1759C4.92524 98.1804 3.17095 98.3609 1.68304 97.5892C0.599665 97.0277 0.592768 96.273 0 95.4626V93.6432C0.767845 92.4313 1.04676 91.372 2.72512 91.08C4.03487 90.8518 5.35038 90.9291 6.67653 90.9327L12.1874 90.9336ZM20.6179 90.903C22.9237 90.9955 25.5097 90.9425 27.8333 90.9425L41.2333 90.9452C42.0067 88.8727 42.999 86.592 43.8443 84.5239L48.7897 72.4017L51.3696 66.0594C52.0247 64.4489 52.7295 61.9032 54.3983 61.1745C55.3418 60.7635 56.4135 60.7624 57.3578 61.1715C58.6692 61.7391 59.1352 62.7372 59.5979 63.9833C60.8266 67.3455 62.0295 70.717 63.2066 74.0975L75.8588 109.378C76.3757 110.822 77.2456 113.474 77.8653 114.746C78.2978 112.67 79.27 109.684 79.8895 107.577L87.0077 83.383C87.5992 81.3736 88.174 79.2794 88.849 77.3006C89.1206 76.5044 89.4587 75.9834 90.1717 75.4971C91.0063 74.9391 92.0341 74.7505 93.0125 74.9759C95.2748 75.4792 95.848 77.8195 96.6099 79.7169L98.484 84.3857C100.179 88.6155 102.243 93.3827 103.77 97.5991C104.217 96.7716 104.548 96.0007 104.924 95.1427L115.169 72.5614L118.046 66.1961C118.787 64.556 119.702 61.7255 121.475 61.0805C122.447 60.7362 123.518 60.8056 124.438 61.2727C126.022 62.075 126.61 64.1782 127.276 65.7498L136.863 88.3377C138.263 88.4592 140.11 88.4085 141.549 88.4076L149.081 88.4018L158.078 88.4051C159.481 88.4058 161.325 88.4647 162.666 88.3913C163.673 86.5455 164.477 85.0473 165.261 83.0971C168.605 74.7674 169.048 65.5544 166.518 56.9424C163.517 46.8261 156.62 38.3162 147.345 33.285C137.937 28.2348 126.905 27.1397 116.688 30.2422C109.205 32.474 103.131 36.7779 97.8767 42.4741C96.8264 43.6133 95.5893 44.7199 94.5228 45.8323C90.8958 49.6142 88.612 46.2848 86.0809 43.7424L81.6228 39.3118C74.9195 32.822 66.1464 28.898 56.8405 28.2273C55.399 28.1232 53.2197 28.0024 51.7661 28.1575C49.463 28.3413 47.8346 28.484 45.5616 28.9427C36.7686 30.7167 28.836 35.4172 23.0572 42.2779C16.1655 50.4421 12.8089 61.0148 13.7296 71.6592C14.2296 77.816 16.8081 85.9851 20.6179 90.903Z" fill="white"/>
</svg>
