<svg width="155" height="48" viewBox="0 0 155 48" fill="none" xmlns="http://www.w3.org/2000/svg">
<path d="M137.631 48.0001C128.395 48.0001 120.881 40.4858 120.881 31.25V6.68429C120.881 5.56272 121.79 4.65382 122.912 4.65382C124.033 4.65382 124.942 5.56272 124.942 6.68429V31.25C124.942 38.2477 130.634 43.9391 137.631 43.9391C144.629 43.9391 150.321 38.2477 150.321 31.25V5.0589C150.321 3.93734 154.381 3.93734 154.381 5.0589V31.25C154.381 40.4858 146.867 48.0001 137.631 48.0001Z" fill="#FF0040"/>
<path d="M152.351 5.61821C153.445 5.61821 154.331 5.29969 154.331 4.90678C154.331 4.51387 153.445 4.19536 152.351 4.19536C151.258 4.19536 150.371 4.51387 150.371 4.90678C150.371 5.29969 151.258 5.61821 152.351 5.61821Z" fill="#B70038"/>
<path d="M153.232 0.000381861C152.632 -0.0148087 152.333 0.428249 152.331 0.430781C152.151 0.195327 151.835 0.00291362 151.475 0.000381861C150.959 -0.00468166 150.516 0.352296 150.404 0.843458C150.229 1.42323 150.493 2.122 151.027 2.55999C151.878 3.25876 152.797 3.27141 153.414 3.25369C153.452 3.25369 153.485 3.22078 153.485 3.18027C153.485 3.15495 153.473 3.13217 153.452 3.11951C153.394 3.07647 153.242 2.94482 153.247 2.76253C153.255 2.53214 153.384 2.41821 153.432 2.36758C153.551 2.24605 153.738 2.07642 153.926 1.89161C154.182 1.6359 154.29 1.3574 154.29 1.08144C154.29 0.494075 153.812 0.0181042 153.235 0.00291362" fill="#FF0040"/>
<path d="M5.56481 25.5865C3.80523 24.6219 2.43555 23.2699 1.46083 21.5306C0.486098 19.7913 0 17.8013 0 15.5582C0 13.3151 0.486098 11.3251 1.46083 9.58578C2.43555 7.84646 3.8027 6.4945 5.56481 5.5299C7.32438 4.5653 9.33713 4.08427 11.6005 4.08427C13.6968 4.08427 15.5779 4.47163 17.2438 5.24634C18.9097 6.02106 20.2718 7.13757 21.3301 8.59586C22.3883 10.0516 23.0846 11.7656 23.4213 13.7353H15.9703C15.6767 12.8973 15.1678 12.2315 14.4462 11.7378C13.7221 11.2466 12.8892 10.9985 11.9474 10.9985C10.6688 10.9985 9.63588 11.4188 8.85103 12.2568C8.06618 13.0948 7.67123 14.1961 7.67123 15.5582C7.67123 16.9203 8.06365 17.9938 8.85103 18.8444C9.63588 19.6926 10.6486 20.1179 11.8841 20.1179C12.8689 20.1179 13.7272 19.8673 14.4614 19.3634C15.1956 18.8596 15.7197 18.1684 16.0336 17.2874H23.5175C23.2669 19.2368 22.601 20.9458 21.52 22.4117C20.4414 23.8801 19.0515 25.0168 17.3552 25.8219C15.6564 26.6296 13.7601 27.0321 11.6638 27.0321C9.35738 27.0321 7.32438 26.5511 5.56481 25.5865Z" fill="white"/>
<path d="M26.6923 25.5535C25.5606 24.6117 24.9935 23.3331 24.9935 21.7179C24.9935 20.1026 25.5075 18.9253 26.5328 17.9911C27.5607 17.0594 28.9431 16.5911 30.6824 16.5911H36.0269V15.586C36.0269 15.1657 35.8548 14.8163 35.5079 14.5327C35.1611 14.2492 34.7256 14.1074 34.2041 14.1074C33.7205 14.1074 33.3129 14.234 32.9787 14.4846C32.6445 14.7353 32.4546 15.072 32.4141 15.4897H25.8113C26.0619 13.477 26.9075 11.9529 28.343 10.9149C29.7786 9.87684 31.7432 9.35783 34.237 9.35783C37.0675 9.35783 39.2347 10.0186 40.7461 11.3377C42.2551 12.6592 43.0095 14.5758 43.0095 17.0924V26.5561H37.8852L37.1612 24.7332C36.4472 25.4674 35.594 26.0219 34.599 26.3991C33.604 26.7763 32.5078 26.9637 31.3128 26.9637C29.3633 26.9637 27.824 26.4928 26.6923 25.5484V25.5535ZM32.3204 22.1736C32.6344 22.4141 33.0648 22.5356 33.6091 22.5356C34.3636 22.5356 34.9712 22.3154 35.432 21.8748C35.8928 21.4343 36.1231 20.8469 36.1231 20.1153V19.895H33.6091C33.0648 19.895 32.6344 20.0165 32.3204 20.2571C32.0065 20.4976 31.8495 20.8191 31.8495 21.2166C31.8495 21.6141 32.0065 21.9356 32.3204 22.1761V22.1736Z" fill="white"/>
<path d="M46.278 9.8033H51.3719L52.1567 11.8464C52.701 11.135 53.3669 10.616 54.1543 10.2894C54.9391 9.96533 55.8784 9.8033 56.967 9.8033H59.1038V16.1859H56.9037C55.6885 16.1859 54.8075 16.4795 54.2631 17.0669C53.7188 17.6543 53.4454 18.5556 53.4454 19.7708V26.561H46.278V9.8033Z" fill="white"/>
<path d="M64.2155 25.9003C62.9268 25.1661 61.9242 24.1357 61.2128 22.804C60.5014 21.4722 60.1444 19.938 60.1444 18.1987C60.1444 16.4594 60.5014 14.9251 61.2128 13.5934C61.9242 12.2617 62.9268 11.2262 64.2155 10.4819C65.5041 9.73755 66.9776 9.36538 68.6334 9.36538C70.2892 9.36538 71.7146 9.72236 72.9728 10.4338V3.29422H80.1402V26.5586H75.016L74.3881 24.923C73.6539 25.594 72.8007 26.1079 71.8259 26.4623C70.8512 26.8193 69.7879 26.9965 68.6359 26.9965C66.9802 26.9965 65.5067 26.6294 64.218 25.8952L64.2155 25.9003ZM67.9574 20.3811C68.5119 20.9355 69.241 21.214 70.1423 21.214C71.0436 21.214 71.7728 20.9355 72.3272 20.3811C72.8817 19.8266 73.1602 19.0975 73.1602 18.1962C73.1602 17.2948 72.8817 16.5606 72.3272 15.9961C71.7728 15.4315 71.0436 15.1479 70.1423 15.1479C69.241 15.1479 68.5119 15.4315 67.9574 15.9961C67.403 16.5606 67.1245 17.2948 67.1245 18.1962C67.1245 19.0975 67.403 19.8266 67.9574 20.3811Z" fill="white"/>
<path d="M84.3202 1.10941C85.0746 0.385328 86.0696 0.0258179 87.3077 0.0258179C88.5457 0.0258179 89.5077 0.387859 90.2622 1.10941C91.0167 1.83349 91.3939 2.78037 91.3939 3.95511C91.3939 5.12984 91.0167 6.08178 90.2622 6.81599C89.5077 7.5502 88.5229 7.91731 87.3077 7.91731C86.0924 7.91731 85.0746 7.5502 84.3202 6.81599C83.5657 6.08178 83.1885 5.12984 83.1885 3.95511C83.1885 2.78037 83.5657 1.83349 84.3202 1.10941ZM83.7227 9.80347H90.8901V26.5612H83.7227V9.80347Z" fill="white"/>
<path d="M98.2171 25.9306C96.7082 25.1964 95.5334 24.166 94.6954 22.8343C93.8574 21.5026 93.4371 19.9582 93.4371 18.1961C93.4371 16.434 93.8574 14.8896 94.6954 13.5579C95.5334 12.2262 96.7082 11.1958 98.2171 10.4616C99.726 9.72736 101.465 9.36025 103.435 9.36025C105.405 9.36025 107.177 9.72736 108.686 10.4616C110.195 11.1958 111.362 12.2287 112.192 13.5579C113.02 14.8896 113.435 16.434 113.435 18.1961C113.435 19.9582 113.02 21.5026 112.192 22.8343C111.365 24.166 110.195 25.1964 108.686 25.9306C107.177 26.6648 105.428 27.0319 103.435 27.0319C101.443 27.0319 99.726 26.6648 98.2171 25.9306ZM101.265 20.381C101.83 20.9355 102.554 21.2139 103.435 21.2139C104.316 21.2139 105.038 20.9355 105.605 20.381C106.169 19.8265 106.453 19.0974 106.453 18.1961C106.453 17.2948 106.169 16.5606 105.605 15.996C105.038 15.4314 104.316 15.1479 103.435 15.1479C102.554 15.1479 101.832 15.4314 101.265 15.996C100.698 16.5606 100.417 17.2948 100.417 18.1961C100.417 19.0974 100.701 19.8265 101.265 20.381Z" fill="white"/>
<path d="M2.48361 37.8576C1.89878 37.5209 1.44053 37.055 1.11393 36.4601C0.784804 35.8651 0.620239 35.1866 0.620239 34.4271C0.620239 33.6675 0.784804 32.9916 1.11393 32.3941C1.44306 31.7991 1.89878 31.3333 2.48361 30.9965C3.06845 30.6598 3.72924 30.4927 4.46598 30.4927C5.33184 30.4927 6.09643 30.7282 6.75722 31.1965C7.41801 31.6674 7.8712 32.2979 8.11678 33.0928H7.42308C7.20534 32.4928 6.83318 32.0194 6.30657 31.6725C5.77996 31.3257 5.16981 31.1535 4.47611 31.1535C3.86089 31.1535 3.31403 31.2902 2.82793 31.5662C2.34437 31.8396 1.96713 32.227 1.69624 32.7257C1.42534 33.2245 1.29116 33.7916 1.29116 34.4271C1.29116 35.0625 1.42787 35.6297 1.69624 36.1284C1.96713 36.6272 2.34437 37.0145 2.82793 37.288C3.3115 37.5614 3.86089 37.7006 4.47611 37.7006C5.1926 37.7006 5.82047 37.5209 6.36227 37.1588C6.90406 36.7968 7.27876 36.3031 7.4889 35.6752H8.1826C8.0307 36.217 7.77499 36.6905 7.41295 37.0955C7.05091 37.5006 6.61798 37.812 6.11162 38.0323C5.60527 38.2526 5.05588 38.364 4.46345 38.364C3.72671 38.364 3.06592 38.1969 2.48108 37.8601L2.48361 37.8576Z" fill="white"/>
<path d="M9.41307 30.6246C9.51687 30.5157 9.65612 30.4626 9.83081 30.4626C10.0055 30.4626 10.1422 30.5157 10.2486 30.6246C10.3524 30.7335 10.4055 30.8676 10.4055 31.0246C10.4055 31.1816 10.3524 31.3284 10.2486 31.4373C10.1448 31.5462 10.0055 31.5993 9.83081 31.5993C9.65612 31.5993 9.51941 31.5462 9.41307 31.4373C9.30927 31.3284 9.2561 31.1917 9.2561 31.0246C9.2561 30.8575 9.30927 30.7309 9.41307 30.6246ZM9.51434 32.6196H10.1422V38.2224H9.51434V32.6196Z" fill="white"/>
<path d="M12.8208 37.9896C12.3879 37.7415 12.0511 37.3946 11.8132 36.949C11.5752 36.506 11.4562 35.9945 11.4562 35.4148C11.4562 34.835 11.5777 34.3362 11.8182 33.8932C12.0613 33.4501 12.398 33.1033 12.8309 32.8526C13.2639 32.6045 13.7626 32.4779 14.3272 32.4779C14.8918 32.4779 15.4133 32.6121 15.8564 32.8779C16.2969 33.1463 16.6336 33.521 16.864 34.0046C17.0944 34.4881 17.2033 35.0451 17.1881 35.673H12.0942C12.1524 36.3085 12.3803 36.8174 12.7828 37.1946C13.1828 37.5744 13.6943 37.7642 14.3171 37.7642C14.7728 37.7642 15.1728 37.663 15.5196 37.4604C15.8665 37.2579 16.1323 36.9769 16.3222 36.6148L17.026 36.625C16.8083 37.1592 16.4615 37.582 15.9804 37.8934C15.4994 38.2048 14.9449 38.3592 14.3171 38.3592C13.7525 38.3592 13.2563 38.2351 12.8208 37.9845V37.9896ZM16.5703 35.1236C16.4969 34.4881 16.2589 33.9869 15.8538 33.6223C15.4488 33.2577 14.9399 33.0754 14.3247 33.0754C13.7094 33.0754 13.1904 33.2602 12.7854 33.6324C12.3803 34.0046 12.1499 34.5008 12.0916 35.1236H16.5678H16.5703Z" fill="white"/>
<path d="M18.4768 32.6197H19.0085L19.0616 33.7033C19.2794 33.3058 19.5731 33.002 19.9452 32.7919C20.3174 32.5817 20.7301 32.4779 21.1858 32.4779C21.9149 32.4779 22.4922 32.7159 22.915 33.1944C23.3378 33.6704 23.5479 34.3135 23.5479 35.1236V38.2225H22.92V35.1768C22.92 34.5337 22.758 34.0248 22.4314 33.6476C22.1048 33.2704 21.6668 33.083 21.1098 33.083C20.7199 33.083 20.3731 33.1767 20.0693 33.364C19.7655 33.5514 19.53 33.8147 19.3604 34.1489C19.1908 34.4856 19.1047 34.873 19.1047 35.3135V38.2174H18.4768V32.6146V32.6197Z" fill="white"/>
<path d="M26.1177 37.9844C25.6847 37.7312 25.3455 37.3818 25.105 36.9388C24.8619 36.4957 24.7429 35.9868 24.7429 35.4172C24.7429 34.8476 24.8644 34.3387 25.105 33.8956C25.348 33.4526 25.6847 33.1057 26.1177 32.8551C26.5506 32.6069 27.0468 32.4804 27.6013 32.4804C28.2646 32.4804 28.852 32.6626 29.3558 33.0272C29.8621 33.3918 30.1938 33.8779 30.3533 34.4855H29.7128C29.533 34.045 29.257 33.7007 28.8849 33.4551C28.5127 33.2095 28.0848 33.0854 27.6013 33.0854C27.1683 33.0854 26.781 33.1842 26.4417 33.3791C26.1025 33.5741 25.8392 33.85 25.6518 34.202C25.4645 34.5564 25.3708 34.9615 25.3708 35.4147C25.3708 35.8679 25.4645 36.2755 25.6518 36.6274C25.8392 36.9818 26.1025 37.2578 26.4417 37.4553C26.781 37.6553 27.1683 37.754 27.6013 37.754C28.1152 37.754 28.5608 37.6198 28.9406 37.354C29.3203 37.0882 29.5887 36.7211 29.7482 36.2603H30.409C30.2216 36.9185 29.8773 37.4325 29.3786 37.8047C28.8798 38.1768 28.2874 38.3616 27.6013 38.3616C27.0443 38.3616 26.5506 38.235 26.1177 37.9819V37.9844Z" fill="white"/>
<path d="M31.5837 30.6246C31.6875 30.5157 31.8268 30.4626 32.0015 30.4626C32.1762 30.4626 32.3129 30.5157 32.4192 30.6246C32.523 30.7335 32.5762 30.8676 32.5762 31.0246C32.5762 31.1816 32.523 31.3284 32.4192 31.4373C32.3154 31.5462 32.1762 31.5993 32.0015 31.5993C31.8268 31.5993 31.6901 31.5462 31.5837 31.4373C31.4799 31.3284 31.4268 31.1917 31.4268 31.0246C31.4268 30.8575 31.4799 30.7309 31.5837 30.6246ZM31.6875 32.6196H32.3154V38.2224H31.6875V32.6196Z" fill="white"/>
<path d="M34.3255 37.8579C33.9457 37.5592 33.7559 37.1516 33.7559 36.6376C33.7559 36.1237 33.9306 35.7439 34.2749 35.4502C34.6217 35.1565 35.085 35.0122 35.6623 35.0122H38.1333V34.6122C38.1333 34.1413 37.9763 33.7666 37.6624 33.4856C37.3484 33.2045 36.9307 33.0628 36.4117 33.0628C35.9914 33.0628 35.6268 33.1615 35.318 33.3615C35.0065 33.5615 34.7939 33.8299 34.6774 34.1691H34.0369C34.1736 33.6501 34.4546 33.2375 34.8774 32.9336C35.3002 32.6298 35.8066 32.4779 36.399 32.4779C36.8623 32.4779 37.2725 32.5665 37.6295 32.7438C37.9864 32.921 38.2649 33.1691 38.4649 33.4856C38.6624 33.8046 38.7637 34.1691 38.7637 34.5793V38.22H38.2447L38.1788 37.2554C37.9333 37.5946 37.6117 37.8554 37.2142 38.0351C36.8168 38.2149 36.3686 38.306 35.8699 38.306C35.2192 38.306 34.7053 38.1567 34.3255 37.8554V37.8579ZM34.7913 37.4427C35.0622 37.6452 35.4294 37.7465 35.8901 37.7465C36.3155 37.7465 36.7003 37.663 37.0446 37.4984C37.3864 37.3313 37.6573 37.1009 37.8522 36.8047C38.0472 36.5085 38.1459 36.1768 38.1459 35.8072V35.5692H35.6851C35.3028 35.5692 34.9888 35.6654 34.7483 35.8629C34.5053 36.0578 34.3863 36.3135 34.3863 36.6325C34.3863 36.9718 34.5204 37.2427 34.7913 37.4452V37.4427Z" fill="white"/>
<path d="M42.3184 39.7919H42.7842C43.0577 39.7919 43.2729 39.7691 43.4298 39.721C43.5843 39.6729 43.7134 39.5919 43.8147 39.4729C43.9159 39.3539 44.0172 39.1716 44.1185 38.9261L44.4324 38.1362L41.7665 32.6194H42.4703L43.7919 35.3816L44.7565 37.3766L45.5591 35.3816L46.6958 32.6194H47.3566L44.6805 39.164C44.5514 39.4881 44.4071 39.7413 44.2527 39.916C44.0982 40.0932 43.9109 40.2147 43.6957 40.2856C43.4779 40.354 43.1969 40.3894 42.8501 40.3894H42.3184V39.7945V39.7919Z" fill="white"/>
<path d="M52.1087 38.0426C51.7011 37.8299 51.3695 37.5362 51.1163 37.159V40.387H50.4884V32.617H51.0201L51.0859 33.7335C51.3315 33.336 51.6631 33.0272 52.0783 32.8069C52.4936 32.5866 52.9619 32.4753 53.4809 32.4753C54.0379 32.4753 54.5342 32.6018 54.9721 32.855C55.4101 33.1082 55.7494 33.4576 55.9899 33.9006C56.233 34.3437 56.352 34.85 56.352 35.4121C56.352 35.9741 56.2304 36.4805 55.9899 36.9286C55.7469 37.3767 55.4076 37.7261 54.9721 37.9793C54.5342 38.2325 54.0379 38.3591 53.4809 38.3591C52.9746 38.3591 52.5189 38.2527 52.1113 38.0401L52.1087 38.0426ZM51.3872 36.6299C51.5821 36.9843 51.8556 37.2603 52.2049 37.4578C52.5543 37.6578 52.9594 37.7565 53.4126 37.7565C53.8658 37.7565 54.2683 37.6578 54.6152 37.4578C54.962 37.2603 55.2329 36.9818 55.4279 36.6299C55.6228 36.2754 55.7215 35.8703 55.7215 35.4172C55.7215 34.964 55.6228 34.569 55.4279 34.2146C55.2329 33.8601 54.962 33.5842 54.6152 33.3867C54.2683 33.1892 53.8683 33.0879 53.4126 33.0879C52.9569 33.0879 52.5543 33.1867 52.2049 33.3867C51.8556 33.5867 51.5821 33.8627 51.3872 34.2146C51.1922 34.5665 51.0935 34.969 51.0935 35.4172C51.0935 35.8653 51.1922 36.2779 51.3872 36.6299Z" fill="white"/>
<path d="M57.6608 32.6195H58.1924L58.2583 33.8753C58.4456 33.45 58.7089 33.1335 59.0431 32.9259C59.3798 32.7208 59.8026 32.617 60.3166 32.617H60.7824V33.2019H60.2938C59.6659 33.2019 59.1748 33.4019 58.8203 33.8044C58.4659 34.2044 58.2886 34.8171 58.2886 35.6399V38.2198H57.6608V32.617V32.6195Z" fill="white"/>
<path d="M62.375 37.9896C61.9421 37.7415 61.6053 37.3946 61.3674 36.949C61.1294 36.506 61.0104 35.9945 61.0104 35.4148C61.0104 34.835 61.1319 34.3362 61.3724 33.8932C61.6155 33.4501 61.9522 33.1033 62.3851 32.8526C62.8181 32.6045 63.3168 32.4779 63.8814 32.4779C64.446 32.4779 64.9675 32.6121 65.4106 32.8779C65.8511 33.1463 66.1878 33.521 66.4182 34.0046C66.6486 34.4881 66.7575 35.0451 66.7423 35.673H61.6484C61.7066 36.3085 61.9345 36.8174 62.337 37.1946C62.737 37.5744 63.2485 37.7642 63.8713 37.7642C64.327 37.7642 64.727 37.663 65.0739 37.4604C65.4207 37.2579 65.6865 36.9769 65.8764 36.6148L66.5802 36.625C66.3625 37.1592 66.0157 37.582 65.5346 37.8934C65.0536 38.2048 64.4991 38.3592 63.8713 38.3592C63.3067 38.3592 62.8105 38.2351 62.375 37.9845V37.9896ZM66.1245 35.1236C66.0511 34.4881 65.8131 33.9869 65.408 33.6223C65.003 33.2577 64.4941 33.0754 63.8789 33.0754C63.2636 33.0754 62.7446 33.2602 62.3395 33.6324C61.9345 34.0046 61.7041 34.5008 61.6458 35.1236H66.122H66.1245Z" fill="white"/>
<path d="M69.6512 38.0426C69.2436 37.8299 68.9119 37.5362 68.6588 37.159V40.387H68.0309V32.617H68.5626L68.6284 33.7335C68.874 33.336 69.2056 33.0272 69.6208 32.8069C70.036 32.5866 70.5044 32.4753 71.0234 32.4753C71.5804 32.4753 72.0766 32.6018 72.5146 32.855C72.9526 33.1082 73.2919 33.4576 73.5324 33.9006C73.7754 34.3437 73.8944 34.85 73.8944 35.4121C73.8944 35.9741 73.7729 36.4805 73.5324 36.9286C73.2893 37.3767 72.9501 37.7261 72.5146 37.9793C72.0766 38.2325 71.5804 38.3591 71.0234 38.3591C70.5171 38.3591 70.0614 38.2527 69.6537 38.0401L69.6512 38.0426ZM68.9322 36.6299C69.1271 36.9843 69.4006 37.2603 69.75 37.4578C70.0993 37.6578 70.5044 37.7565 70.9576 37.7565C71.4108 37.7565 71.8133 37.6578 72.1602 37.4578C72.507 37.2603 72.7779 36.9818 72.9729 36.6299C73.1678 36.2754 73.2666 35.8703 73.2666 35.4172C73.2666 34.964 73.1678 34.569 72.9729 34.2146C72.7779 33.8601 72.507 33.5842 72.1602 33.3867C71.8133 33.1892 71.4133 33.0879 70.9576 33.0879C70.5019 33.0879 70.0993 33.1867 69.75 33.3867C69.4006 33.5867 69.1271 33.8627 68.9322 34.2146C68.7372 34.5665 68.6385 34.969 68.6385 35.4172C68.6385 35.8653 68.7372 36.2779 68.9322 36.6299Z" fill="white"/>
<path d="M75.3426 37.8579C74.9628 37.5592 74.7729 37.1516 74.7729 36.6376C74.7729 36.1237 74.9476 35.7439 75.292 35.4502C75.6388 35.1565 76.1021 35.0122 76.6794 35.0122H79.1504V34.6122C79.1504 34.1413 78.9934 33.7666 78.6795 33.4856C78.3655 33.2045 77.9478 33.0628 77.4288 33.0628C77.0085 33.0628 76.6439 33.1615 76.335 33.3615C76.0236 33.5615 75.811 33.8299 75.6945 34.1691H75.054C75.1907 33.6501 75.4717 33.2375 75.8945 32.9336C76.3173 32.6298 76.8237 32.4779 77.4161 32.4779C77.8794 32.4779 78.2896 32.5665 78.6465 32.7438C79.0035 32.921 79.282 33.1691 79.482 33.4856C79.6795 33.8046 79.7808 34.1691 79.7808 34.5793V38.22H79.2618L79.1959 37.2554C78.9504 37.5946 78.6288 37.8554 78.2313 38.0351C77.8338 38.2149 77.3857 38.306 76.887 38.306C76.2363 38.306 75.7224 38.1567 75.3426 37.8554V37.8579ZM75.8084 37.4427C76.0793 37.6452 76.4464 37.7465 76.9072 37.7465C77.3326 37.7465 77.7174 37.663 78.0617 37.4984C78.4035 37.3313 78.6744 37.1009 78.8693 36.8047C79.0643 36.5085 79.163 36.1768 79.163 35.8072V35.5692H76.7021C76.3199 35.5692 76.0059 35.6654 75.7654 35.8629C75.5224 36.0578 75.4034 36.3135 75.4034 36.6325C75.4034 36.9718 75.5375 37.2427 75.8084 37.4452V37.4427Z" fill="white"/>
<path d="M81.4594 32.6195H81.991L82.0568 33.8753C82.2442 33.45 82.5075 33.1335 82.8417 32.9259C83.1759 32.7183 83.6012 32.617 84.1152 32.617H84.581V33.2019H84.0924C83.4645 33.2019 82.9733 33.4019 82.6189 33.8044C82.2644 34.2044 82.0872 34.8171 82.0872 35.6399V38.2198H81.4594V32.617V32.6195Z" fill="white"/>
<path d="M85.4848 37.8579C85.105 37.5592 84.9152 37.1516 84.9152 36.6376C84.9152 36.1237 85.0899 35.7439 85.4342 35.4502C85.781 35.1565 86.2443 35.0122 86.8216 35.0122H89.2926V34.6122C89.2926 34.1413 89.1356 33.7666 88.8217 33.4856C88.5077 33.2045 88.09 33.0628 87.571 33.0628C87.1507 33.0628 86.7861 33.1615 86.4773 33.3615C86.1659 33.5615 85.9532 33.8299 85.8367 34.1691H85.1962C85.3329 33.6501 85.6139 33.2375 86.0367 32.9336C86.4595 32.6298 86.9659 32.4779 87.5583 32.4779C88.0216 32.4779 88.4318 32.5665 88.7888 32.7438C89.1457 32.921 89.4242 33.1691 89.6242 33.4856C89.8217 33.8046 89.923 34.1691 89.923 34.5793V38.22H89.404L89.3381 37.2554C89.0926 37.5946 88.771 37.8554 88.3735 38.0351C87.9761 38.2149 87.5279 38.306 87.0292 38.306C86.3785 38.306 85.8646 38.1567 85.4848 37.8554V37.8579ZM85.9506 37.4427C86.2215 37.6452 86.5887 37.7465 87.0494 37.7465C87.4748 37.7465 87.8596 37.663 88.2039 37.4984C88.5457 37.3313 88.8166 37.1009 89.0115 36.8047C89.2065 36.5085 89.3052 36.1768 89.3052 35.8072V35.5692H86.8444C86.4621 35.5692 86.1481 35.6654 85.9076 35.8629C85.6646 36.0578 85.5456 36.3135 85.5456 36.6325C85.5456 36.9718 85.6798 37.2427 85.9506 37.4452V37.4427Z" fill="white"/>
<path d="M92.4902 37.9844C92.0573 37.7312 91.718 37.3818 91.4775 36.9388C91.237 36.4957 91.1155 35.9868 91.1155 35.4172C91.1155 34.8476 91.237 34.3387 91.4775 33.8956C91.718 33.4526 92.0573 33.1057 92.4902 32.8551C92.9232 32.6069 93.4194 32.4804 93.9738 32.4804C94.6371 32.4804 95.2245 32.6626 95.7283 33.0272C96.2347 33.3918 96.5663 33.8779 96.7258 34.4855H96.0853C95.9056 34.045 95.6296 33.7007 95.2574 33.4551C94.8853 33.2095 94.4574 33.0854 93.9738 33.0854C93.5409 33.0854 93.1535 33.1842 92.8143 33.3791C92.475 33.5741 92.2117 33.85 92.0244 34.202C91.837 34.5564 91.7433 34.9615 91.7433 35.4147C91.7433 35.8679 91.837 36.2755 92.0244 36.6274C92.2117 36.9818 92.475 37.2578 92.8143 37.4553C93.1535 37.6553 93.5409 37.754 93.9738 37.754C94.4878 37.754 94.9334 37.6198 95.3131 37.354C95.6929 37.0882 95.9613 36.7211 96.1208 36.2603H96.7815C96.5942 36.9185 96.2499 37.4325 95.7511 37.8047C95.2524 38.1768 94.6599 38.3616 93.9738 38.3616C93.4168 38.3616 92.9232 38.235 92.4902 37.9819V37.9844Z" fill="white"/>
<path d="M97.9563 30.6246C98.0601 30.5157 98.1993 30.4626 98.374 30.4626C98.5487 30.4626 98.6854 30.5157 98.7918 30.6246C98.8956 30.7335 98.9487 30.8676 98.9487 31.0246C98.9487 31.1816 98.8956 31.3284 98.7918 31.4373C98.688 31.5462 98.5487 31.5993 98.374 31.5993C98.1993 31.5993 98.0626 31.5462 97.9563 31.4373C97.8525 31.3284 97.7993 31.1917 97.7993 31.0246C97.7993 30.8575 97.8525 30.7309 97.9563 30.6246ZM98.0601 32.6196H98.688V38.2224H98.0601V32.6196Z" fill="white"/>
<path d="M101.42 37.9895C100.972 37.7414 100.622 37.392 100.374 36.9439C100.126 36.4958 99.9994 35.9869 99.9994 35.4147C99.9994 34.8425 100.123 34.3362 100.374 33.8931C100.625 33.4501 100.972 33.1032 101.42 32.8526C101.868 32.6045 102.377 32.4779 102.949 32.4779C103.521 32.4779 104.027 32.6019 104.47 32.8526C104.914 33.1032 105.26 33.4475 105.511 33.8931C105.759 34.3362 105.886 34.8451 105.886 35.4147C105.886 35.9844 105.762 36.4958 105.511 36.9439C105.26 37.392 104.916 37.7414 104.47 37.9895C104.025 38.2376 103.519 38.3642 102.949 38.3642C102.379 38.3642 101.868 38.2401 101.42 37.9895ZM100.921 36.6299C101.116 36.9844 101.389 37.2604 101.739 37.4578C102.088 37.6578 102.491 37.7566 102.946 37.7566C103.402 37.7566 103.792 37.6578 104.144 37.4578C104.493 37.2604 104.767 36.9819 104.962 36.6299C105.157 36.2755 105.255 35.8704 105.255 35.4172C105.255 34.9641 105.157 34.5564 104.962 34.2045C104.767 33.8501 104.493 33.5766 104.144 33.3817C103.794 33.1868 103.394 33.088 102.946 33.088C102.498 33.088 102.088 33.1868 101.739 33.3817C101.389 33.5766 101.116 33.8526 100.921 34.2045C100.726 34.559 100.627 34.9641 100.627 35.4172C100.627 35.8704 100.726 36.278 100.921 36.6299ZM103.131 30.0499H103.802L103.119 31.6854H102.534L103.129 30.0499H103.131Z" fill="white"/>
<path d="M107.195 32.6197H107.726L107.78 33.7033C107.997 33.3058 108.291 33.002 108.663 32.7919C109.035 32.5817 109.448 32.4779 109.904 32.4779C110.633 32.4779 111.21 32.7159 111.633 33.1944C112.056 33.6704 112.266 34.3135 112.266 35.1236V38.2225H111.638V35.1768C111.638 34.5337 111.476 34.0248 111.149 33.6476C110.823 33.2704 110.382 33.083 109.828 33.083C109.438 33.083 109.091 33.1767 108.787 33.364C108.483 33.5514 108.248 33.8147 108.078 34.1489C107.909 34.4856 107.823 34.873 107.823 35.3135V38.2174H107.195V32.6146V32.6197Z" fill="white"/>
<path d="M48.3642 47.5367C47.9313 47.2835 47.5921 46.9342 47.3515 46.4911C47.1085 46.048 46.9895 45.5392 46.9895 44.9695C46.9895 44.3999 47.111 43.891 47.3515 43.4479C47.5946 43.0049 47.9313 42.658 48.3642 42.4074C48.7972 42.1593 49.2934 42.0327 49.8479 42.0327C50.5112 42.0327 51.0985 42.215 51.6024 42.5795C52.1087 42.9441 52.4404 43.4302 52.5999 44.0378H51.9593C51.7796 43.5973 51.5036 43.253 51.1315 43.0074C50.7593 42.7618 50.3314 42.6378 49.8479 42.6378C49.4149 42.6378 49.0276 42.7365 48.6883 42.9314C48.3491 43.1264 48.0858 43.4024 47.8984 43.7543C47.7111 44.1087 47.6174 44.5138 47.6174 44.967C47.6174 45.4202 47.7111 45.8278 47.8984 46.1797C48.0858 46.5341 48.3491 46.8101 48.6883 47.0076C49.0276 47.2076 49.4149 47.3063 49.8479 47.3063C50.3618 47.3063 50.8074 47.1721 51.1872 46.9063C51.5669 46.6379 51.8353 46.2734 51.9948 45.8126H52.6556C52.4682 46.4708 52.1239 46.9848 51.6252 47.357C51.1264 47.7291 50.534 47.9139 49.8479 47.9139C49.2909 47.9139 48.7972 47.7874 48.3642 47.5342V47.5367Z" fill="white"/>
<path d="M54.8658 47.5416C54.4176 47.2935 54.0682 46.9441 53.8201 46.496C53.572 46.0479 53.4454 45.539 53.4454 44.9668C53.4454 44.3947 53.5695 43.8883 53.8201 43.4453C54.0682 43.0022 54.4176 42.6553 54.8658 42.4047C55.3139 42.1566 55.8228 42.03 56.3949 42.03C56.9671 42.03 57.4735 42.1541 57.9165 42.4047C58.3596 42.6553 58.7064 42.9997 58.9571 43.4453C59.2052 43.8883 59.3318 44.3972 59.3318 44.9668C59.3318 45.5365 59.2077 46.0479 58.9571 46.496C58.709 46.9441 58.3621 47.2935 57.9165 47.5416C57.4709 47.7897 56.9646 47.9163 56.3949 47.9163C55.8253 47.9163 55.3139 47.7923 54.8658 47.5416ZM54.367 46.1821C54.5619 46.5365 54.8354 46.8125 55.1848 47.01C55.5341 47.21 55.9367 47.3087 56.3924 47.3087C56.8481 47.3087 57.2405 47.21 57.5899 47.01C57.9393 46.8125 58.2127 46.534 58.4077 46.1821C58.6026 45.8276 58.7014 45.4226 58.7014 44.9694C58.7014 44.5162 58.6026 44.1086 58.4077 43.7567C58.2127 43.4022 57.9393 43.1288 57.5899 42.9338C57.2405 42.7389 56.8405 42.6401 56.3924 42.6401C55.9443 42.6401 55.5341 42.7389 55.1848 42.9338C54.8354 43.1288 54.5619 43.4047 54.367 43.7567C54.172 44.1111 54.0733 44.5162 54.0733 44.9694C54.0733 45.4226 54.172 45.8302 54.367 46.1821Z" fill="white"/>
<path d="M60.6433 42.1744H61.175L61.2281 43.258C61.4459 42.8606 61.7396 42.5567 62.1117 42.3466C62.4839 42.1365 62.8966 42.0327 63.3523 42.0327C64.0814 42.0327 64.6587 42.2707 65.0815 42.7492C65.5043 43.2251 65.7144 43.8682 65.7144 44.6784V47.7772H65.0865V44.7315C65.0865 44.0885 64.9245 43.5796 64.5979 43.2023C64.2713 42.8251 63.8333 42.6378 63.2763 42.6378C62.8864 42.6378 62.5396 42.7314 62.2358 42.9188C61.932 43.1061 61.6965 43.3694 61.5269 43.7036C61.3573 44.0404 61.2712 44.4277 61.2712 44.8682V47.7722H60.6433V42.1694V42.1744Z" fill="white"/>
<path d="M70.5045 47.5367C70.0716 47.2835 69.7323 46.9342 69.4918 46.4911C69.2488 46.048 69.1298 45.5392 69.1298 44.9695C69.1298 44.3999 69.2513 43.891 69.4918 43.4479C69.7349 43.0049 70.0716 42.658 70.5045 42.4074C70.9374 42.1593 71.4337 42.0327 71.9881 42.0327C72.6514 42.0327 73.2388 42.215 73.7426 42.5795C74.249 42.9441 74.5806 43.4302 74.7401 44.0378H74.0996C73.9199 43.5973 73.6439 43.253 73.2717 43.0074C72.8996 42.7618 72.4717 42.6378 71.9881 42.6378C71.5552 42.6378 71.1678 42.7365 70.8286 42.9314C70.4893 43.1264 70.226 43.4024 70.0387 43.7543C69.8513 44.1087 69.7576 44.5138 69.7576 44.967C69.7576 45.4202 69.8513 45.8278 70.0387 46.1797C70.226 46.5341 70.4893 46.8101 70.8286 47.0076C71.1678 47.2076 71.5552 47.3063 71.9881 47.3063C72.5021 47.3063 72.9477 47.1721 73.3274 46.9063C73.7072 46.6405 73.9756 46.2734 74.1351 45.8126H74.7958C74.6085 46.4708 74.2642 46.9848 73.7654 47.357C73.2667 47.7291 72.6742 47.9139 71.9881 47.9139C71.4311 47.9139 70.9374 47.7874 70.5045 47.5342V47.5367Z" fill="white"/>
<path d="M77.006 47.5416C76.5579 47.2935 76.2085 46.9441 75.9604 46.496C75.7123 46.0479 75.5857 45.539 75.5857 44.9668C75.5857 44.3947 75.7098 43.8883 75.9604 43.4453C76.2085 43.0022 76.5579 42.6553 77.006 42.4047C77.4541 42.1566 77.963 42.03 78.5327 42.03C79.1023 42.03 79.6112 42.1541 80.0543 42.4047C80.4973 42.6553 80.8442 42.9997 81.0948 43.4453C81.3454 43.8908 81.4695 44.3972 81.4695 44.9668C81.4695 45.5365 81.3454 46.0479 81.0948 46.496C80.8467 46.9441 80.4998 47.2935 80.0543 47.5416C79.6087 47.7897 79.1023 47.9163 78.5327 47.9163C77.963 47.9163 77.4516 47.7923 77.006 47.5416ZM76.5073 46.1821C76.7022 46.5365 76.9756 46.8125 77.325 47.01C77.6744 47.21 78.0769 47.3087 78.5327 47.3087C78.9884 47.3087 79.3808 47.21 79.7302 47.01C80.0796 46.8125 80.353 46.534 80.5479 46.1821C80.7429 45.8276 80.8416 45.4226 80.8416 44.9694C80.8416 44.5162 80.7454 44.1086 80.5479 43.7567C80.353 43.4022 80.0796 43.1288 79.7302 42.9338C79.3808 42.7389 78.9808 42.6401 78.5327 42.6401C78.0845 42.6401 77.6744 42.7389 77.325 42.9338C76.9756 43.1288 76.7022 43.4047 76.5073 43.7567C76.3123 44.1111 76.2136 44.5162 76.2136 44.9694C76.2136 45.4226 76.3123 45.8302 76.5073 46.1821Z" fill="white"/>
<path d="M82.7809 42.1743H83.3126L83.3784 43.43C83.5657 43.0047 83.829 42.6882 84.1632 42.4806C84.4974 42.273 84.9227 42.1718 85.4367 42.1718H85.9025V42.7566H85.4139C84.786 42.7566 84.2949 42.9566 83.9404 43.3592C83.586 43.7592 83.4088 44.3719 83.4088 45.1947V47.7745H82.7809V42.1718V42.1743Z" fill="white"/>
<path d="M86.8065 47.4127C86.4267 47.1139 86.2368 46.7063 86.2368 46.1923C86.2368 45.6784 86.4115 45.2986 86.7558 45.005C87.1027 44.7113 87.566 44.567 88.1432 44.567H90.6142V44.1669C90.6142 43.696 90.4573 43.3213 90.1433 43.0403C89.8294 42.7593 89.4116 42.6175 88.8926 42.6175C88.4724 42.6175 88.1078 42.7162 87.7989 42.9163C87.4875 43.1163 87.2748 43.3846 87.1584 43.7239H86.5178C86.6546 43.2049 86.9356 42.7922 87.3584 42.4884C87.7812 42.1846 88.2875 42.0327 88.88 42.0327C89.3433 42.0327 89.7534 42.1213 90.1104 42.2985C90.4674 42.4757 90.7459 42.7238 90.9459 43.0403C91.1434 43.3593 91.2446 43.7239 91.2446 44.134V47.7747H90.7256L90.6598 46.8101C90.4142 47.1494 90.0927 47.4101 89.6952 47.5899C89.2977 47.7696 88.8496 47.8608 88.3508 47.8608C87.7002 47.8608 87.1862 47.7114 86.8065 47.4101V47.4127ZM87.2723 46.9949C87.5432 47.1975 87.9103 47.2987 88.3711 47.2987C88.7964 47.2987 89.1813 47.2152 89.5256 47.0506C89.8674 46.8835 90.1383 46.6531 90.3332 46.3569C90.5281 46.0607 90.6269 45.729 90.6269 45.3594V45.1214H88.166C87.7837 45.1214 87.4698 45.2176 87.2293 45.4151C86.9862 45.61 86.8672 45.8658 86.8672 46.1848C86.8672 46.524 87.0014 46.7949 87.2723 46.9974V46.9949Z" fill="white"/>
<path d="M92.3813 47.2886L96.022 42.7491H92.5105V42.1744H96.8676V42.6504L93.2472 47.1898H96.9436V47.7747H92.3813V47.2861V47.2886Z" fill="white"/>
<path d="M98.9486 47.5417C98.5005 47.2936 98.1511 46.9442 97.903 46.4961C97.6549 46.048 97.5283 45.5391 97.5283 44.9669C97.5283 44.3947 97.6524 43.8884 97.903 43.4453C98.1537 43.0023 98.5005 42.6554 98.9486 42.4048C99.3968 42.1567 99.9056 42.0301 100.478 42.0301C101.05 42.0301 101.556 42.1541 101.999 42.4048C102.442 42.6554 102.789 42.9997 103.04 43.4453C103.288 43.8884 103.415 44.3973 103.415 44.9669C103.415 45.5366 103.291 46.048 103.04 46.4961C102.789 46.9442 102.445 47.2936 101.999 47.5417C101.554 47.7898 101.047 47.9164 100.478 47.9164C99.9082 47.9164 99.3968 47.7924 98.9486 47.5417ZM98.4499 46.1822C98.6448 46.5366 98.9183 46.8126 99.2676 47.01C99.617 47.2101 100.02 47.3088 100.475 47.3088C100.931 47.3088 101.321 47.2101 101.673 47.01C102.022 46.8126 102.296 46.5341 102.491 46.1822C102.686 45.8277 102.784 45.4226 102.784 44.9695C102.784 44.5163 102.686 44.1087 102.491 43.7567C102.296 43.4023 102.022 43.1289 101.673 42.9339C101.323 42.739 100.923 42.6402 100.475 42.6402C100.027 42.6402 99.617 42.739 99.2676 42.9339C98.9183 43.1289 98.6448 43.4048 98.4499 43.7567C98.2549 44.1112 98.1562 44.5163 98.1562 44.9695C98.1562 45.4226 98.2549 45.8303 98.4499 46.1822ZM100.66 39.6047H101.331L100.647 41.2402H100.063L100.658 39.6047H100.66Z" fill="white"/>
<path d="M104.726 42.1744H105.258L105.311 43.258C105.529 42.8606 105.822 42.5567 106.195 42.3466C106.567 42.1365 106.979 42.0327 107.435 42.0327C108.164 42.0327 108.742 42.2707 109.164 42.7492C109.587 43.2251 109.797 43.8682 109.797 44.6784V47.7772H109.169V44.7315C109.169 44.0885 109.007 43.5796 108.681 43.2023C108.354 42.8251 107.914 42.6378 107.359 42.6378C106.969 42.6378 106.622 42.7314 106.319 42.9188C106.015 43.1061 105.779 43.3694 105.61 43.7036C105.44 44.0404 105.354 44.4277 105.354 44.8682V47.7722H104.726V42.1694V42.1744Z" fill="white"/>
</svg>
