<svg width="170" height="53" viewBox="0 0 170 53" fill="none" xmlns="http://www.w3.org/2000/svg">
<path d="M151.555 52.8561C141.385 52.8561 133.111 44.5817 133.111 34.4114V7.36052C133.111 6.12549 134.111 5.12464 135.347 5.12464C136.582 5.12464 137.582 6.12549 137.582 7.36052V34.4114C137.582 42.1172 143.85 48.3843 151.555 48.3843C159.261 48.3843 165.528 42.1172 165.528 34.4114V5.5707C165.528 4.33566 170 4.33566 170 5.5707V34.4114C170 44.5817 161.726 52.8561 151.555 52.8561Z" fill="#E40046"/>
<path d="M167.764 6.18658C168.968 6.18658 169.944 5.83584 169.944 5.40318C169.944 4.97053 168.968 4.61979 167.764 4.61979C166.56 4.61979 165.584 4.97053 165.584 5.40318C165.584 5.83584 166.56 6.18658 167.764 6.18658Z" fill="#8A002A"/>
<path d="M168.734 0.000420493C168.074 -0.0163069 167.745 0.471574 167.742 0.474362C167.544 0.215088 167.195 0.00320838 166.8 0.000420493C166.231 -0.00515529 165.743 0.387937 165.62 0.928788C165.428 1.56722 165.718 2.33667 166.306 2.81898C167.243 3.58844 168.255 3.60238 168.935 3.58286C168.977 3.58286 169.013 3.54662 169.013 3.50201C169.013 3.47413 168.999 3.44904 168.977 3.4351C168.913 3.38771 168.745 3.24274 168.751 3.04201C168.759 2.78831 168.902 2.66286 168.955 2.6071C169.086 2.47328 169.292 2.28649 169.498 2.08297C169.78 1.8014 169.9 1.49473 169.9 1.19085C169.9 0.544059 169.373 0.0199357 168.737 0.00320838" fill="#E40046"/>
<path d="M6.12778 28.175C4.1902 27.1128 2.68195 25.6241 1.60861 23.7088C0.535275 21.7935 0 19.6022 0 17.1322C0 14.6621 0.535275 12.4708 1.60861 10.5555C2.68195 8.64026 4.18741 7.15153 6.12778 6.08934C8.06537 5.02716 10.2817 4.49746 12.7741 4.49746C15.0825 4.49746 17.1539 4.924 18.9883 5.7771C20.8228 6.63019 22.3226 7.85965 23.488 9.46548C24.6533 11.0685 25.42 12.9559 25.7908 15.1249H17.586C17.2626 14.2021 16.7023 13.4689 15.9077 12.9253C15.1104 12.3844 14.1931 12.1112 13.1561 12.1112C11.7482 12.1112 10.6107 12.574 9.74646 13.4968C8.88222 14.4196 8.44731 15.6323 8.44731 17.1322C8.44731 18.6321 8.87943 19.8141 9.74646 20.7509C10.6107 21.6848 11.7259 22.1532 13.0864 22.1532C14.1708 22.1532 15.1159 21.8772 15.9244 21.3224C16.7329 20.7676 17.31 20.0065 17.6557 19.0363H25.8967C25.6207 21.183 24.8875 23.0648 23.6971 24.679C22.5094 26.296 20.9789 27.5477 19.111 28.4343C17.2403 29.3236 15.1522 29.7669 12.8438 29.7669C10.304 29.7669 8.06537 29.2372 6.12778 28.175Z" fill="#002D72"/>
<path d="M29.3927 28.1387C28.1465 27.1016 27.522 25.6937 27.522 23.915C27.522 22.1363 28.088 20.84 29.2171 19.8112C30.349 18.7853 31.8712 18.2695 33.7864 18.2695H39.6717V17.1627C39.6717 16.6999 39.4821 16.3152 39.1002 16.003C38.7182 15.6907 38.2387 15.5346 37.6644 15.5346C37.1319 15.5346 36.683 15.674 36.315 15.95C35.947 16.226 35.738 16.5968 35.6934 17.0568H28.4225C28.6985 14.8404 29.6297 13.1621 31.2104 12.0191C32.7912 10.876 34.9546 10.3045 37.7006 10.3045C40.8175 10.3045 43.2039 11.0322 44.8683 12.4847C46.5299 13.9399 47.3607 16.0504 47.3607 18.8215V29.2427H41.718L40.9206 27.2354C40.1345 28.0439 39.1949 28.6544 38.0993 29.0698C37.0037 29.4852 35.7965 29.6915 34.4806 29.6915C32.3339 29.6915 30.6389 29.173 29.3927 28.1331V28.1387ZM35.5902 24.4168C35.9359 24.6817 36.4098 24.8155 37.0092 24.8155C37.84 24.8155 38.5091 24.5729 39.0165 24.0879C39.5239 23.6028 39.7776 22.956 39.7776 22.1503V21.9077H37.0092C36.4098 21.9077 35.9359 22.0415 35.5902 22.3064C35.2445 22.5712 35.0717 22.9253 35.0717 23.363C35.0717 23.8007 35.2445 24.1548 35.5902 24.4196V24.4168Z" fill="#002D72"/>
<path d="M50.9598 10.7951H56.5691L57.4333 13.0449C58.0327 12.2615 58.7659 11.69 59.633 11.3303C60.4972 10.9735 61.5315 10.7951 62.7303 10.7951H65.0833V17.8233H62.6606C61.3224 17.8233 60.3522 18.1467 59.7528 18.7935C59.1534 19.4403 58.8524 20.4328 58.8524 21.771V29.2481H50.9598V10.7951Z" fill="#002D72"/>
<path d="M70.712 28.5206C69.2929 27.7121 68.1889 26.5774 67.4055 25.111C66.6222 23.6445 66.2291 21.9551 66.2291 20.0398C66.2291 18.1245 66.6222 16.435 67.4055 14.9686C68.1889 13.5022 69.2929 12.3619 70.712 11.5423C72.131 10.7227 73.7536 10.3128 75.5769 10.3128C77.4001 10.3128 78.9697 10.7059 80.3553 11.4893V3.62748H88.2478V29.2454H82.6051L81.9137 27.4444C81.1052 28.1832 80.1657 28.7492 79.0924 29.1395C78.019 29.5326 76.8481 29.7277 75.5796 29.7277C73.7564 29.7277 72.1338 29.3235 70.7148 28.515L70.712 28.5206ZM74.8325 22.443C75.443 23.0535 76.2459 23.3602 77.2384 23.3602C78.2309 23.3602 79.0338 23.0535 79.6444 22.443C80.2549 21.8324 80.5616 21.0295 80.5616 20.037C80.5616 19.0445 80.2549 18.236 79.6444 17.6143C79.0338 16.9926 78.2309 16.6804 77.2384 16.6804C76.2459 16.6804 75.443 16.9926 74.8325 17.6143C74.2219 18.236 73.9153 19.0445 73.9153 20.037C73.9153 21.0295 74.2219 21.8324 74.8325 22.443Z" fill="#002D72"/>
<path d="M92.8507 1.22164C93.6815 0.424303 94.7771 0.0284227 96.1404 0.0284227C97.5037 0.0284227 98.5631 0.427091 99.3938 1.22164C100.225 2.01898 100.64 3.06165 100.64 4.35523C100.64 5.64881 100.225 6.69706 99.3938 7.50554C98.5631 8.31403 97.4786 8.71828 96.1404 8.71828C94.8022 8.71828 93.6815 8.31403 92.8507 7.50554C92.0199 6.69706 91.6045 5.64881 91.6045 4.35523C91.6045 3.06165 92.0199 2.01898 92.8507 1.22164ZM92.1927 10.7953H100.085V29.2483H92.1927V10.7953Z" fill="#002D72"/>
<path d="M108.153 28.5539C106.492 27.7455 105.198 26.6108 104.275 25.1444C103.353 23.6779 102.89 21.9773 102.89 20.0369C102.89 18.0966 103.353 16.396 104.275 14.9295C105.198 13.4631 106.492 12.3284 108.153 11.5199C109.815 10.7114 111.73 10.3072 113.899 10.3072C116.068 10.3072 118.02 10.7114 119.681 11.5199C121.343 12.3284 122.628 13.4659 123.543 14.9295C124.454 16.396 124.911 18.0966 124.911 20.0369C124.911 21.9773 124.454 23.6779 123.543 25.1444C122.631 26.6108 121.343 27.7455 119.681 28.5539C118.02 29.3624 116.093 29.7667 113.899 29.7667C111.705 29.7667 109.815 29.3624 108.153 28.5539ZM111.51 22.4429C112.132 23.0534 112.929 23.3601 113.899 23.3601C114.869 23.3601 115.664 23.0534 116.288 22.4429C116.91 21.8323 117.222 21.0294 117.222 20.0369C117.222 19.0444 116.91 18.236 116.288 17.6143C115.664 16.9926 114.869 16.6803 113.899 16.6803C112.929 16.6803 112.135 16.9926 111.51 17.6143C110.886 18.236 110.576 19.0444 110.576 20.0369C110.576 21.0294 110.888 21.8323 111.51 22.4429Z" fill="#002D72"/>
<path d="M2.73492 41.6875C2.09092 41.3168 1.58631 40.8038 1.22667 40.1486C0.864244 39.4935 0.683031 38.7463 0.683031 37.91C0.683031 37.0736 0.864244 36.3292 1.22667 35.6713C1.5891 35.0161 2.09092 34.5032 2.73492 34.1324C3.37892 33.7616 4.10656 33.5776 4.91784 33.5776C5.87129 33.5776 6.71324 33.8368 7.44088 34.3526C8.16852 34.8712 8.66755 35.5653 8.93797 36.4407H8.17409C7.93433 35.78 7.52451 35.2587 6.94463 34.8767C6.36475 34.4948 5.69287 34.3052 4.92899 34.3052C4.25153 34.3052 3.64935 34.4558 3.11407 34.7596C2.58158 35.0607 2.16619 35.4873 1.86788 36.0365C1.56958 36.5857 1.42182 37.2102 1.42182 37.91C1.42182 38.6097 1.57237 39.2342 1.86788 39.7834C2.16619 40.3326 2.58158 40.7592 3.11407 41.0603C3.64656 41.3614 4.25153 41.5147 4.92899 41.5147C5.71796 41.5147 6.40936 41.3168 7.00597 40.9181C7.60257 40.5194 8.01518 39.9758 8.24658 39.2844H9.01046C8.84319 39.881 8.56161 40.4023 8.16294 40.8484C7.76427 41.2945 7.28754 41.6374 6.72996 41.8799C6.17239 42.1225 5.56741 42.2451 4.91505 42.2451C4.10377 42.2451 3.37613 42.0611 2.73213 41.6903L2.73492 41.6875Z" fill="#002D72"/>
<path d="M10.3654 33.7228C10.4797 33.6029 10.633 33.5444 10.8254 33.5444C11.0177 33.5444 11.1683 33.6029 11.2854 33.7228C11.3997 33.8427 11.4582 33.9904 11.4582 34.1633C11.4582 34.3361 11.3997 34.4978 11.2854 34.6177C11.1711 34.7376 11.0177 34.7961 10.8254 34.7961C10.633 34.7961 10.4825 34.7376 10.3654 34.6177C10.2511 34.4978 10.1925 34.3473 10.1925 34.1633C10.1925 33.9793 10.2511 33.8399 10.3654 33.7228ZM10.4769 35.9197H11.1683V42.0893H10.4769V35.9197Z" fill="#002D72"/>
<path d="M14.1179 41.8329C13.6411 41.5597 13.2704 41.1777 13.0083 40.687C12.7462 40.1992 12.6152 39.636 12.6152 38.9976C12.6152 38.3592 12.749 37.8099 13.0139 37.3221C13.2815 36.8342 13.6523 36.4522 14.129 36.1762C14.6058 35.903 15.155 35.7636 15.7767 35.7636C16.3984 35.7636 16.9727 35.9114 17.4606 36.2041C17.9457 36.4996 18.3164 36.9122 18.5701 37.4447C18.8238 37.9772 18.9437 38.5905 18.927 39.2819H13.3178C13.3819 39.9817 13.6328 40.5421 14.0761 40.9575C14.5165 41.3756 15.0797 41.5847 15.7655 41.5847C16.2673 41.5847 16.7078 41.4732 17.0898 41.2502C17.4717 41.0272 17.7644 40.7177 17.9735 40.319L18.7486 40.3302C18.5088 40.9184 18.1269 41.384 17.5972 41.7269C17.0675 42.0698 16.4569 42.2399 15.7655 42.2399C15.1438 42.2399 14.5974 42.1033 14.1179 41.8273V41.8329ZM18.2467 38.677C18.1659 37.9772 17.9038 37.4252 17.4578 37.0238C17.0117 36.6223 16.4513 36.4216 15.7739 36.4216C15.0964 36.4216 14.5249 36.6251 14.0788 37.0349C13.6328 37.4447 13.3791 37.9912 13.315 38.677H18.2467Z" fill="#002D72"/>
<path d="M20.346 35.9197H20.9315L20.99 37.113C21.2298 36.6753 21.5532 36.3407 21.963 36.1093C22.3728 35.8779 22.8273 35.7636 23.3291 35.7636C24.132 35.7636 24.7676 36.0257 25.2332 36.5526C25.6988 37.0767 25.9302 37.7848 25.9302 38.677V42.0894H25.2388V38.7355C25.2388 38.0274 25.0604 37.467 24.7007 37.0516C24.3411 36.6362 23.8588 36.4299 23.2454 36.4299C22.8161 36.4299 22.4342 36.5331 22.0996 36.7394C21.7651 36.9457 21.5058 37.2356 21.319 37.6036C21.1322 37.9744 21.0374 38.401 21.0374 38.8861V42.0838H20.346V35.9142V35.9197Z" fill="#002D72"/>
<path d="M28.7599 41.8272C28.2832 41.5484 27.9096 41.1637 27.6447 40.6758C27.3771 40.1879 27.2461 39.6275 27.2461 39.0003C27.2461 38.373 27.3799 37.8126 27.6447 37.3247C27.9124 36.8369 28.2832 36.4549 28.7599 36.1789C29.2366 35.9057 29.783 35.7663 30.3936 35.7663C31.124 35.7663 31.7708 35.967 32.3256 36.3685C32.8832 36.7699 33.2484 37.3052 33.424 37.9743H32.7187C32.5208 37.4892 32.2169 37.1101 31.8071 36.8396C31.3972 36.5692 30.9261 36.4326 30.3936 36.4326C29.9169 36.4326 29.4903 36.5413 29.1167 36.756C28.7432 36.9707 28.4532 37.2746 28.2469 37.6621C28.0406 38.0524 27.9375 38.4984 27.9375 38.9975C27.9375 39.4965 28.0406 39.9454 28.2469 40.3329C28.4532 40.7232 28.7432 41.0271 29.1167 41.2445C29.4903 41.4648 29.9169 41.5735 30.3936 41.5735C30.9595 41.5735 31.4502 41.4257 31.8684 41.133C32.2866 40.8403 32.5821 40.436 32.7577 39.9286H33.4854C33.2791 40.6535 32.8999 41.2194 32.3507 41.6292C31.8015 42.0391 31.1491 42.2426 30.3936 42.2426C29.7803 42.2426 29.2366 42.1032 28.7599 41.8244V41.8272Z" fill="#002D72"/>
<path d="M34.779 33.7228C34.8933 33.6029 35.0466 33.5444 35.239 33.5444C35.4313 33.5444 35.5819 33.6029 35.699 33.7228C35.8133 33.8427 35.8718 33.9904 35.8718 34.1633C35.8718 34.3361 35.8133 34.4978 35.699 34.6177C35.5847 34.7376 35.4313 34.7961 35.239 34.7961C35.0466 34.7961 34.8961 34.7376 34.779 34.6177C34.6647 34.4978 34.6061 34.3473 34.6061 34.1633C34.6061 33.9793 34.6647 33.8399 34.779 33.7228ZM34.8933 35.9197H35.5847V42.0893H34.8933V35.9197Z" fill="#002D72"/>
<path d="M37.7982 41.6879C37.38 41.3589 37.1709 40.9101 37.1709 40.3441C37.1709 39.7782 37.3633 39.36 37.7424 39.0366C38.1244 38.7132 38.6346 38.5543 39.2702 38.5543H41.9912V38.1138C41.9912 37.5953 41.8183 37.1827 41.4726 36.8732C41.1269 36.5638 40.6669 36.4076 40.0954 36.4076C39.6326 36.4076 39.2312 36.5164 38.891 36.7366C38.5481 36.9568 38.314 37.2524 38.1857 37.6259H37.4804C37.6309 37.0544 37.9404 36.6 38.406 36.2654C38.8715 35.9309 39.4291 35.7636 40.0815 35.7636C40.5917 35.7636 41.0433 35.8612 41.4364 36.0564C41.8295 36.2515 42.1362 36.5247 42.3564 36.8732C42.5739 37.2245 42.6854 37.6259 42.6854 38.0776V42.0866H42.1138L42.0414 41.0244C41.7709 41.398 41.4169 41.6851 40.9792 41.883C40.5415 42.081 40.048 42.1814 39.4988 42.1814C38.7823 42.1814 38.2164 42.0169 37.7982 41.6851V41.6879ZM38.3112 41.2307C38.6095 41.4537 39.0137 41.5652 39.5211 41.5652C39.9895 41.5652 40.4132 41.4732 40.7924 41.292C41.1688 41.108 41.4671 40.8543 41.6817 40.5281C41.8964 40.2019 42.0051 39.8367 42.0051 39.4297V39.1676H39.2953C38.8743 39.1676 38.5286 39.2736 38.2638 39.491C37.9961 39.7057 37.8651 39.9873 37.8651 40.3386C37.8651 40.7121 38.0129 41.0104 38.3112 41.2335V41.2307Z" fill="#002D72"/>
<path d="M46.5997 43.8176H47.1126C47.4137 43.8176 47.6507 43.7925 47.8236 43.7395C47.9936 43.6865 48.1358 43.5973 48.2473 43.4663C48.3588 43.3353 48.4703 43.1345 48.5819 42.8641L48.9276 41.9943L45.9919 35.9195H46.7669L48.2222 38.9611L49.2844 41.1579L50.1682 38.9611L51.4199 35.9195H52.1476L49.2008 43.1262C49.0586 43.483 48.8997 43.7618 48.7296 43.9542C48.5596 44.1493 48.3533 44.2831 48.1163 44.3612C47.8765 44.4365 47.5671 44.4755 47.1851 44.4755H46.5997V43.8176Z" fill="#002D72"/>
<path d="M57.3804 41.8913C56.9316 41.6571 56.5664 41.3337 56.2876 40.9183V44.4728H55.5962V35.9168H56.1816L56.2541 37.1463C56.5245 36.7086 56.8898 36.3684 57.347 36.1259C57.8042 35.8833 58.32 35.7607 58.8915 35.7607C59.5048 35.7607 60.0512 35.9001 60.5335 36.1789C61.0158 36.4577 61.3894 36.8424 61.6543 37.3303C61.9219 37.8181 62.0529 38.3757 62.0529 38.9946C62.0529 39.6135 61.9191 40.1711 61.6543 40.6646C61.3866 41.158 61.0131 41.5428 60.5335 41.8216C60.0512 42.1003 59.5048 42.2397 58.8915 42.2397C58.3339 42.2397 57.8321 42.1226 57.3832 41.8885L57.3804 41.8913ZM56.5859 40.3356C56.8006 40.7259 57.1016 41.0298 57.4864 41.2472C57.8711 41.4675 58.3172 41.5762 58.8162 41.5762C59.3152 41.5762 59.7585 41.4675 60.1404 41.2472C60.5224 41.0298 60.8207 40.7231 61.0354 40.3356C61.25 39.9453 61.3587 39.4992 61.3587 39.0002C61.3587 38.5012 61.25 38.0663 61.0354 37.676C60.8207 37.2857 60.5224 36.9818 60.1404 36.7643C59.7585 36.5469 59.318 36.4353 58.8162 36.4353C58.3144 36.4353 57.8711 36.5441 57.4864 36.7643C57.1016 36.9846 56.8006 37.2884 56.5859 37.676C56.3712 38.0635 56.2625 38.5068 56.2625 39.0002C56.2625 39.4937 56.3712 39.9481 56.5859 40.3356Z" fill="#002D72"/>
<path d="M63.4942 35.9196H64.0797L64.1522 37.3024C64.3585 36.834 64.6484 36.4855 65.0164 36.2569C65.3872 36.0311 65.8528 35.9168 66.4187 35.9168H66.9317V36.5608H66.3936C65.7022 36.5608 65.1614 36.781 64.7711 37.2243C64.3808 37.6648 64.1856 38.3395 64.1856 39.2455V42.0864H63.4942V35.9168V35.9196Z" fill="#002D72"/>
<path d="M68.6853 41.8329C68.2086 41.5597 67.8378 41.1777 67.5758 40.687C67.3137 40.1992 67.1827 39.636 67.1827 38.9976C67.1827 38.3592 67.3165 37.8099 67.5813 37.3221C67.849 36.8342 68.2198 36.4522 68.6965 36.1762C69.1732 35.903 69.7224 35.7636 70.3441 35.7636C70.9658 35.7636 71.5401 35.9114 72.028 36.2041C72.5131 36.4996 72.8839 36.9122 73.1376 37.4447C73.3913 37.9772 73.5112 38.5905 73.4944 39.2819H67.8852C67.9493 39.9817 68.2002 40.5421 68.6435 40.9575C69.084 41.3756 69.6472 41.5847 70.333 41.5847C70.8348 41.5847 71.2753 41.4732 71.6572 41.2502C72.0392 41.0272 72.3319 40.7177 72.541 40.319L73.316 40.3302C73.0763 40.9184 72.6943 41.384 72.1646 41.7269C71.6349 42.0698 71.0244 42.2399 70.333 42.2399C69.7113 42.2399 69.1649 42.1033 68.6853 41.8273V41.8329ZM72.8142 38.677C72.7334 37.9772 72.4713 37.4252 72.0252 37.0238C71.5792 36.6223 71.0188 36.4216 70.3413 36.4216C69.6639 36.4216 69.0924 36.6251 68.6463 37.0349C68.2002 37.4447 67.9465 37.9912 67.8824 38.677H72.8142Z" fill="#002D72"/>
<path d="M76.6977 41.8913C76.2488 41.6571 75.8836 41.3337 75.6048 40.9183V44.4728H74.9134V35.9168H75.4989L75.5714 37.1463C75.8418 36.7086 76.207 36.3684 76.6642 36.1259C77.1214 35.8833 77.6372 35.7607 78.2087 35.7607C78.8221 35.7607 79.3685 35.9001 79.8508 36.1789C80.3331 36.4577 80.7067 36.8424 80.9715 37.3303C81.2392 37.8181 81.3702 38.3757 81.3702 38.9946C81.3702 39.6135 81.2364 40.1711 80.9715 40.6646C80.7039 41.158 80.3303 41.5428 79.8508 41.8216C79.3685 42.1003 78.8221 42.2397 78.2087 42.2397C77.6511 42.2397 77.1493 42.1226 76.7005 41.8885L76.6977 41.8913ZM75.9059 40.3356C76.1206 40.7259 76.4217 41.0298 76.8064 41.2472C77.1911 41.4675 77.6372 41.5762 78.1362 41.5762C78.6353 41.5762 79.0785 41.4675 79.4605 41.2472C79.8424 41.0298 80.1407 40.7231 80.3554 40.3356C80.5701 39.9453 80.6788 39.4992 80.6788 39.0002C80.6788 38.5012 80.5701 38.0663 80.3554 37.676C80.1407 37.2857 79.8424 36.9818 79.4605 36.7643C79.0785 36.5469 78.6381 36.4353 78.1362 36.4353C77.6344 36.4353 77.1911 36.5441 76.8064 36.7643C76.4217 36.9846 76.1206 37.2884 75.9059 37.676C75.6913 38.0635 75.5825 38.5068 75.5825 39.0002C75.5825 39.4937 75.6913 39.9481 75.9059 40.3356Z" fill="#002D72"/>
<path d="M82.9648 41.6879C82.5466 41.3589 82.3375 40.9101 82.3375 40.3441C82.3375 39.7782 82.5299 39.36 82.9091 39.0366C83.291 38.7132 83.8012 38.5543 84.4368 38.5543H87.1578V38.1138C87.1578 37.5953 86.985 37.1827 86.6393 36.8732C86.2936 36.5638 85.8336 36.4076 85.262 36.4076C84.7992 36.4076 84.3978 36.5164 84.0577 36.7366C83.7148 36.9568 83.4806 37.2524 83.3523 37.6259H82.647C82.7976 37.0544 83.107 36.6 83.5726 36.2654C84.0382 35.9309 84.5957 35.7636 85.2481 35.7636C85.7583 35.7636 86.2099 35.8612 86.603 36.0564C86.9961 36.2515 87.3028 36.5247 87.523 36.8732C87.7405 37.2245 87.852 37.6259 87.852 38.0776V42.0866H87.2805L87.208 41.0244C86.9376 41.398 86.5835 41.6851 86.1458 41.883C85.7081 42.081 85.2147 42.1814 84.6654 42.1814C83.9489 42.1814 83.383 42.0169 82.9648 41.6851V41.6879ZM83.4778 41.2307C83.7761 41.4537 84.1803 41.5652 84.6877 41.5652C85.1561 41.5652 85.5799 41.4732 85.959 41.292C86.3354 41.108 86.6337 40.8543 86.8484 40.5281C87.063 40.2019 87.1718 39.8367 87.1718 39.4297V39.1676H84.4619C84.041 39.1676 83.6953 39.2736 83.4304 39.491C83.1628 39.7057 83.0317 39.9873 83.0317 40.3386C83.0317 40.7121 83.1795 41.0104 83.4778 41.2335V41.2307Z" fill="#002D72"/>
<path d="M89.7004 35.9196H90.2859L90.3583 37.3024C90.5646 36.834 90.8546 36.4855 91.2226 36.2569C91.5906 36.0283 92.059 35.9168 92.6249 35.9168H93.1379V36.5608H92.5998C91.9084 36.5608 91.3676 36.781 90.9773 37.2243C90.587 37.6648 90.3918 38.3395 90.3918 39.2455V42.0864H89.7004V35.9168V35.9196Z" fill="#002D72"/>
<path d="M94.1332 41.6879C93.715 41.3589 93.5059 40.9101 93.5059 40.3441C93.5059 39.7782 93.6983 39.36 94.0774 39.0366C94.4594 38.7132 94.9696 38.5543 95.6052 38.5543H98.3262V38.1138C98.3262 37.5953 98.1533 37.1827 97.8076 36.8732C97.4619 36.5638 97.0019 36.4076 96.4304 36.4076C95.9676 36.4076 95.5662 36.5164 95.226 36.7366C94.8831 36.9568 94.6489 37.2524 94.5207 37.6259H93.8154C93.9659 37.0544 94.2754 36.6 94.7409 36.2654C95.2065 35.9309 95.7641 35.7636 96.4165 35.7636C96.9267 35.7636 97.3783 35.8612 97.7714 36.0564C98.1645 36.2515 98.4711 36.5247 98.6914 36.8732C98.9088 37.2245 99.0204 37.6259 99.0204 38.0776V42.0866H98.4488L98.3764 41.0244C98.1059 41.398 97.7519 41.6851 97.3142 41.883C96.8765 42.081 96.383 42.1814 95.8338 42.1814C95.1173 42.1814 94.5514 42.0169 94.1332 41.6851V41.6879ZM94.6462 41.2307C94.9445 41.4537 95.3487 41.5652 95.8561 41.5652C96.3245 41.5652 96.7482 41.4732 97.1274 41.292C97.5038 41.108 97.802 40.8543 98.0167 40.5281C98.2314 40.2019 98.3401 39.8367 98.3401 39.4297V39.1676H95.6303C95.2093 39.1676 94.8636 39.2736 94.5988 39.491C94.3311 39.7057 94.2001 39.9873 94.2001 40.3386C94.2001 40.7121 94.3479 41.0104 94.6462 41.2335V41.2307Z" fill="#002D72"/>
<path d="M101.847 41.8272C101.371 41.5484 100.997 41.1637 100.732 40.6758C100.467 40.1879 100.333 39.6275 100.333 39.0003C100.333 38.373 100.467 37.8126 100.732 37.3247C100.997 36.8369 101.371 36.4549 101.847 36.1789C102.324 35.9057 102.87 35.7663 103.481 35.7663C104.211 35.7663 104.858 35.967 105.413 36.3685C105.971 36.7699 106.336 37.3052 106.511 37.9743H105.806C105.608 37.4892 105.304 37.1101 104.894 36.8396C104.485 36.5692 104.013 36.4326 103.481 36.4326C103.004 36.4326 102.578 36.5413 102.204 36.756C101.831 36.9707 101.541 37.2746 101.334 37.6621C101.128 38.0524 101.025 38.4984 101.025 38.9975C101.025 39.4965 101.128 39.9454 101.334 40.3329C101.541 40.7232 101.831 41.0271 102.204 41.2445C102.578 41.4648 103.004 41.5735 103.481 41.5735C104.047 41.5735 104.538 41.4257 104.956 41.133C105.374 40.8403 105.669 40.436 105.845 39.9286H106.573C106.366 40.6535 105.987 41.2194 105.438 41.6292C104.889 42.0391 104.236 42.2426 103.481 42.2426C102.868 42.2426 102.324 42.1032 101.847 41.8244V41.8272Z" fill="#002D72"/>
<path d="M107.866 33.7228C107.981 33.6029 108.134 33.5444 108.326 33.5444C108.519 33.5444 108.669 33.6029 108.786 33.7228C108.901 33.8427 108.959 33.9904 108.959 34.1633C108.959 34.3361 108.901 34.4978 108.786 34.6177C108.672 34.7376 108.519 34.7961 108.326 34.7961C108.134 34.7961 107.983 34.7376 107.866 34.6177C107.752 34.4978 107.693 34.3473 107.693 34.1633C107.693 33.9793 107.752 33.8399 107.866 33.7228ZM107.981 35.9197H108.672V42.0893H107.981V35.9197Z" fill="#002D72"/>
<path d="M111.68 41.8328C111.187 41.5596 110.802 41.1749 110.529 40.6814C110.256 40.1879 110.116 39.6276 110.116 38.9975C110.116 38.3674 110.253 37.8099 110.529 37.322C110.805 36.8341 111.187 36.4522 111.68 36.1762C112.174 35.9029 112.734 35.7636 113.364 35.7636C113.994 35.7636 114.552 35.9002 115.04 36.1762C115.527 36.4522 115.909 36.8313 116.185 37.322C116.459 37.8099 116.598 38.3702 116.598 38.9975C116.598 39.6248 116.461 40.1879 116.185 40.6814C115.909 41.1749 115.53 41.5596 115.04 41.8328C114.549 42.106 113.991 42.2454 113.364 42.2454C112.737 42.2454 112.174 42.1088 111.68 41.8328ZM111.131 40.3357C111.346 40.726 111.647 41.0299 112.031 41.2473C112.416 41.4676 112.859 41.5763 113.361 41.5763C113.863 41.5763 114.292 41.4676 114.68 41.2473C115.065 41.0299 115.366 40.7232 115.58 40.3357C115.795 39.9454 115.904 39.4993 115.904 39.0003C115.904 38.5013 115.795 38.0524 115.58 37.6649C115.366 37.2746 115.065 36.9735 114.68 36.7588C114.295 36.5442 113.855 36.4354 113.361 36.4354C112.868 36.4354 112.416 36.5442 112.031 36.7588C111.647 36.9735 111.346 37.2774 111.131 37.6649C110.916 38.0552 110.808 38.5013 110.808 39.0003C110.808 39.4993 110.916 39.9482 111.131 40.3357ZM114.304 33.09L113.551 34.8909H112.907L113.562 33.09H114.304Z" fill="#002D72"/>
<path d="M118.039 35.9197H118.625L118.683 37.113C118.923 36.6753 119.246 36.3407 119.656 36.1093C120.066 35.8779 120.521 35.7636 121.022 35.7636C121.825 35.7636 122.461 36.0257 122.926 36.5526C123.392 37.0767 123.623 37.7848 123.623 38.677V42.0894H122.932V38.7355C122.932 38.0274 122.754 37.467 122.394 37.0516C122.034 36.6362 121.549 36.4299 120.939 36.4299C120.509 36.4299 120.127 36.5331 119.793 36.7394C119.458 36.9457 119.199 37.2356 119.012 37.6036C118.825 37.9744 118.731 38.401 118.731 38.8861V42.0838H118.039V35.9142V35.9197Z" fill="#002D72"/>
<path d="M53.2571 52.3459C52.7804 52.0671 52.4068 51.6824 52.1419 51.1945C51.8743 50.7066 51.7433 50.1462 51.7433 49.519C51.7433 48.8917 51.8771 48.3313 52.1419 47.8434C52.4096 47.3555 52.7804 46.9736 53.2571 46.6976C53.7338 46.4244 54.2803 46.285 54.8908 46.285C55.6212 46.285 56.268 46.4857 56.8228 46.8872C57.3804 47.2886 57.7456 47.8239 57.9212 48.493H57.2159C57.018 48.0079 56.7141 47.6288 56.3043 47.3583C55.8944 47.0879 55.4233 46.9513 54.8908 46.9513C54.4141 46.9513 53.9875 47.06 53.614 47.2747C53.2404 47.4894 52.9504 47.7933 52.7441 48.1808C52.5378 48.5711 52.4347 49.0171 52.4347 49.5162C52.4347 50.0152 52.5378 50.464 52.7441 50.8516C52.9504 51.2419 53.2404 51.5457 53.614 51.7632C53.9875 51.9834 54.4141 52.0922 54.8908 52.0922C55.4567 52.0922 55.9474 51.9444 56.3656 51.6517C56.7838 51.3562 57.0793 50.9547 57.2549 50.4473H57.9826C57.7763 51.1722 57.3971 51.7381 56.8479 52.1479C56.2987 52.5578 55.6463 52.7613 54.8908 52.7613C54.2775 52.7613 53.7338 52.6219 53.2571 52.3431V52.3459Z" fill="#002D72"/>
<path d="M60.4164 52.3513C59.923 52.0781 59.5383 51.6934 59.265 51.1999C58.9918 50.7064 58.8524 50.1461 58.8524 49.516C58.8524 48.8859 58.989 48.3284 59.265 47.8405C59.5383 47.3526 59.923 46.9707 60.4164 46.6947C60.9099 46.4215 61.4703 46.2821 62.1003 46.2821C62.7304 46.2821 63.288 46.4187 63.7758 46.6947C64.2637 46.9707 64.6457 47.3498 64.9217 47.8405C65.1949 48.3284 65.3343 48.8887 65.3343 49.516C65.3343 50.1433 65.1977 50.7064 64.9217 51.1999C64.6484 51.6934 64.2665 52.0781 63.7758 52.3513C63.2852 52.6245 62.7276 52.7639 62.1003 52.7639C61.473 52.7639 60.9099 52.6273 60.4164 52.3513ZM59.8672 50.8542C60.0819 51.2445 60.383 51.5484 60.7677 51.7658C61.1524 51.9861 61.5957 52.0948 62.0975 52.0948C62.5994 52.0948 63.0315 51.9861 63.4162 51.7658C63.8009 51.5484 64.102 51.2417 64.3167 50.8542C64.5314 50.4639 64.6401 50.0178 64.6401 49.5188C64.6401 49.0198 64.5314 48.5709 64.3167 48.1834C64.102 47.7931 63.8009 47.492 63.4162 47.2773C63.0315 47.0627 62.591 46.9539 62.0975 46.9539C61.6041 46.9539 61.1524 47.0627 60.7677 47.2773C60.383 47.492 60.0819 47.7959 59.8672 48.1834C59.6526 48.5737 59.5438 49.0198 59.5438 49.5188C59.5438 50.0178 59.6526 50.4667 59.8672 50.8542Z" fill="#002D72"/>
<path d="M66.7784 46.4411H67.3639L67.4224 47.6343C67.6622 47.1966 67.9856 46.8621 68.3954 46.6307C68.8052 46.3993 69.2596 46.285 69.7614 46.285C70.5644 46.285 71.2 46.5471 71.6656 47.074C72.1312 47.5981 72.3625 48.3062 72.3625 49.1983V52.6107H71.6712V49.2569C71.6712 48.5488 71.4927 47.9884 71.1331 47.573C70.7734 47.1576 70.2911 46.9513 69.6778 46.9513C69.2485 46.9513 68.8665 47.0545 68.532 47.2608C68.1974 47.4671 67.9382 47.757 67.7514 48.125C67.5646 48.4958 67.4698 48.9223 67.4698 49.4074V52.6051H66.7784V46.4355V46.4411Z" fill="#002D72"/>
<path d="M77.6372 52.3459C77.1605 52.0671 76.7869 51.6824 76.5221 51.1945C76.2544 50.7066 76.1234 50.1462 76.1234 49.519C76.1234 48.8917 76.2572 48.3313 76.5221 47.8434C76.7897 47.3555 77.1605 46.9736 77.6372 46.6976C78.114 46.4244 78.6604 46.285 79.2709 46.285C80.0014 46.285 80.6482 46.4857 81.2029 46.8872C81.7605 47.2886 82.1257 47.8239 82.3014 48.493H81.596C81.3981 48.0079 81.0942 47.6288 80.6844 47.3583C80.2746 47.0879 79.8034 46.9513 79.2709 46.9513C78.7942 46.9513 78.3677 47.06 77.9941 47.2747C77.6205 47.4894 77.3306 47.7933 77.1243 48.1808C76.918 48.5711 76.8148 49.0171 76.8148 49.5162C76.8148 50.0152 76.918 50.464 77.1243 50.8516C77.3306 51.2419 77.6205 51.5457 77.9941 51.7632C78.3677 51.9834 78.7942 52.0922 79.2709 52.0922C79.8369 52.0922 80.3276 51.9444 80.7457 51.6517C81.1639 51.359 81.4594 50.9547 81.6351 50.4473H82.3627C82.1564 51.1722 81.7772 51.7381 81.228 52.1479C80.6788 52.5578 80.0265 52.7613 79.2709 52.7613C78.6576 52.7613 78.114 52.6219 77.6372 52.3431V52.3459Z" fill="#002D72"/>
<path d="M84.7965 52.3513C84.303 52.0781 83.9183 51.6934 83.6451 51.1999C83.3719 50.7064 83.2325 50.1461 83.2325 49.516C83.2325 48.8859 83.3691 48.3284 83.6451 47.8405C83.9183 47.3526 84.303 46.9707 84.7965 46.6947C85.29 46.4215 85.8503 46.2821 86.4776 46.2821C87.1049 46.2821 87.6652 46.4187 88.1531 46.6947C88.641 46.9707 89.0229 47.3498 89.2989 47.8405C89.5749 48.3312 89.7116 48.8887 89.7116 49.516C89.7116 50.1433 89.5749 50.7064 89.2989 51.1999C89.0257 51.6934 88.6438 52.0781 88.1531 52.3513C87.6625 52.6245 87.1049 52.7639 86.4776 52.7639C85.8503 52.7639 85.2872 52.6273 84.7965 52.3513ZM84.2473 50.8542C84.462 51.2445 84.7631 51.5484 85.1478 51.7658C85.5325 51.9861 85.9758 52.0948 86.4776 52.0948C86.9794 52.0948 87.4115 51.9861 87.7963 51.7658C88.181 51.5484 88.4821 51.2417 88.6968 50.8542C88.9114 50.4639 89.0202 50.0178 89.0202 49.5188C89.0202 49.0198 88.9142 48.5709 88.6968 48.1834C88.4821 47.7931 88.181 47.492 87.7963 47.2773C87.4115 47.0627 86.9711 46.9539 86.4776 46.9539C85.9841 46.9539 85.5325 47.0627 85.1478 47.2773C84.7631 47.492 84.462 47.7959 84.2473 48.1834C84.0326 48.5737 83.9239 49.0198 83.9239 49.5188C83.9239 50.0178 84.0326 50.4667 84.2473 50.8542Z" fill="#002D72"/>
<path d="M91.1557 46.4409H91.7411L91.8136 47.8237C92.0199 47.3554 92.3098 47.0069 92.6778 46.7783C93.0458 46.5497 93.5142 46.4382 94.0801 46.4382H94.5931V47.0822H94.0551C93.3637 47.0822 92.8228 47.3024 92.4325 47.7457C92.0422 48.1862 91.8471 48.8608 91.8471 49.7669V52.6078H91.1557V46.4382V46.4409Z" fill="#002D72"/>
<path d="M95.5884 52.2093C95.1702 51.8803 94.9612 51.4314 94.9612 50.8655C94.9612 50.2996 95.1535 49.8814 95.5327 49.558C95.9146 49.2346 96.4248 49.0757 97.0604 49.0757H99.7814V48.6352C99.7814 48.1166 99.6086 47.704 99.2629 47.3946C98.9172 47.0851 98.4572 46.929 97.8857 46.929C97.4229 46.929 97.0214 47.0377 96.6813 47.258C96.3384 47.4782 96.1042 47.7737 95.976 48.1473H95.2706C95.4212 47.5758 95.7306 47.1214 96.1962 46.7868C96.6618 46.4523 97.2194 46.285 97.8717 46.285C98.3819 46.285 98.8335 46.3826 99.2266 46.5777C99.6197 46.7729 99.9264 47.0461 100.147 47.3946C100.364 47.7459 100.476 48.1473 100.476 48.5989V52.6079H99.9041L99.8316 51.5457C99.5612 51.9193 99.2071 52.2065 98.7694 52.4044C98.3317 52.6024 97.8383 52.7027 97.289 52.7027C96.5726 52.7027 96.0066 52.5382 95.5884 52.2065V52.2093ZM96.1014 51.7493C96.3997 51.9723 96.804 52.0838 97.3113 52.0838C97.7797 52.0838 98.2035 51.9918 98.5826 51.8106C98.959 51.6266 99.2573 51.3729 99.472 51.0467C99.6866 50.7205 99.7954 50.3553 99.7954 49.9483V49.6862H97.0855C96.6646 49.6862 96.3189 49.7922 96.054 50.0096C95.7864 50.2243 95.6553 50.5059 95.6553 50.8571C95.6553 51.2307 95.8031 51.529 96.1014 51.7521V51.7493Z" fill="#002D72"/>
<path d="M101.727 52.0726L105.736 47.074H101.87V46.4411H106.668V46.9652L102.681 51.9639H106.751V52.6079H101.727V52.0699V52.0726Z" fill="#002D72"/>
<path d="M108.959 52.3514C108.466 52.0782 108.081 51.6934 107.808 51.2C107.535 50.7065 107.395 50.1462 107.395 49.5161C107.395 48.886 107.532 48.3285 107.808 47.8406C108.084 47.3527 108.466 46.9708 108.959 46.6948C109.453 46.4215 110.013 46.2821 110.643 46.2821C111.273 46.2821 111.831 46.4188 112.319 46.6948C112.806 46.9708 113.188 47.3499 113.464 47.8406C113.738 48.3285 113.877 48.8888 113.877 49.5161C113.877 50.1434 113.74 50.7065 113.464 51.2C113.188 51.6934 112.809 52.0782 112.319 52.3514C111.828 52.6246 111.27 52.764 110.643 52.764C110.016 52.764 109.453 52.6274 108.959 52.3514ZM108.41 50.8543C108.625 51.2446 108.926 51.5485 109.31 51.7659C109.695 51.9862 110.138 52.0949 110.64 52.0949C111.142 52.0949 111.571 51.9862 111.959 51.7659C112.344 51.5485 112.645 51.2418 112.859 50.8543C113.074 50.464 113.183 50.0179 113.183 49.5189C113.183 49.0199 113.074 48.571 112.859 48.1835C112.645 47.7932 112.344 47.4921 111.959 47.2774C111.574 47.0628 111.134 46.954 110.64 46.954C110.147 46.954 109.695 47.0628 109.31 47.2774C108.926 47.4921 108.625 47.796 108.41 48.1835C108.195 48.5738 108.087 49.0199 108.087 49.5189C108.087 50.0179 108.195 50.4668 108.41 50.8543ZM111.583 43.6113L110.83 45.4123H110.186L110.841 43.6113H111.583Z" fill="#002D72"/>
<path d="M115.321 46.4411H115.907L115.965 47.6343C116.205 47.1966 116.528 46.8621 116.938 46.6307C117.348 46.3993 117.802 46.285 118.304 46.285C119.107 46.285 119.743 46.5471 120.208 47.074C120.674 47.5981 120.905 48.3062 120.905 49.1983V52.6107H120.214V49.2569C120.214 48.5488 120.035 47.9884 119.676 47.573C119.316 47.1576 118.831 46.9513 118.221 46.9513C117.791 46.9513 117.409 47.0545 117.075 47.2608C116.74 47.4671 116.481 47.757 116.294 48.125C116.107 48.4958 116.013 48.9223 116.013 49.4074V52.6051H115.321V46.4355V46.4411Z" fill="#002D72"/>
</svg>
