<svg width="36" height="36" viewBox="0 0 36 36" fill="none" xmlns="http://www.w3.org/2000/svg">
<rect width="36" height="36" rx="18" fill="white"/>
<mask id="mask0_2030_4218" style="mask-type:alpha" maskUnits="userSpaceOnUse" x="0" y="0" width="36" height="36">
<path fill-rule="evenodd" clip-rule="evenodd" d="M0 18C0 8.05887 8.05887 0 18 0C27.9411 0 36 8.05887 36 18C36 27.9411 27.9411 36 18 36C8.05887 36 0 27.9411 0 18Z" fill="white"/>
</mask>
<g mask="url(#mask0_2030_4218)">
<path fill-rule="evenodd" clip-rule="evenodd" d="M18.0009 8.3999C15.3937 8.3999 15.0665 8.4113 14.0425 8.4579C13.0205 8.5047 12.3229 8.66651 11.7125 8.90391C11.0811 9.14911 10.5454 9.47711 10.0118 10.0109C9.47784 10.5445 9.14983 11.0801 8.90383 11.7113C8.66583 12.3219 8.50383 13.0198 8.45783 14.0414C8.41202 15.0654 8.40002 15.3928 8.40002 18C8.40002 20.6072 8.41162 20.9334 8.45803 21.9574C8.50503 22.9795 8.66683 23.6771 8.90403 24.2875C9.14943 24.9189 9.47744 25.4545 10.0112 25.9881C10.5446 26.5221 11.0803 26.8509 11.7113 27.0961C12.3221 27.3335 13.0199 27.4953 14.0417 27.5421C15.0657 27.5887 15.3927 27.6001 17.9997 27.6001C20.6072 27.6001 20.9334 27.5887 21.9574 27.5421C22.9794 27.4953 23.6778 27.3335 24.2886 27.0961C24.9198 26.8509 25.4546 26.5221 25.988 25.9881C26.522 25.4545 26.85 24.9189 27.096 24.2877C27.332 23.6771 27.494 22.9793 27.542 21.9576C27.588 20.9336 27.6 20.6072 27.6 18C27.6 15.3928 27.588 15.0656 27.542 14.0416C27.494 13.0196 27.332 12.3219 27.096 11.7115C26.85 11.0801 26.522 10.5445 25.988 10.0109C25.454 9.47691 24.92 9.14891 24.288 8.90391C23.676 8.66651 22.978 8.5047 21.956 8.4579C20.932 8.4113 20.606 8.3999 17.9979 8.3999H18.0009ZM17.1414 10.1308C17.397 10.1304 17.6822 10.1308 18.0026 10.1308C20.5659 10.1308 20.8697 10.14 21.8819 10.186C22.8179 10.2288 23.3259 10.3852 23.6643 10.5166C24.1123 10.6906 24.4317 10.8986 24.7675 11.2346C25.1035 11.5706 25.3115 11.8906 25.4859 12.3386C25.6173 12.6766 25.7739 13.1846 25.8165 14.1207C25.8625 15.1327 25.8725 15.4367 25.8725 17.9987C25.8725 20.5607 25.8625 20.8647 25.8165 21.8767C25.7737 22.8127 25.6173 23.3208 25.4859 23.6588C25.3119 24.1068 25.1035 24.4258 24.7675 24.7616C24.4315 25.0976 24.1125 25.3056 23.6643 25.4796C23.3263 25.6116 22.8179 25.7676 21.8819 25.8104C20.8699 25.8564 20.5659 25.8664 18.0026 25.8664C15.4392 25.8664 15.1354 25.8564 14.1234 25.8104C13.1874 25.7672 12.6794 25.6108 12.3408 25.4794C11.8928 25.3054 11.5728 25.0974 11.2368 24.7614C10.9008 24.4254 10.6928 24.1062 10.5184 23.658C10.387 23.32 10.2304 22.8119 10.1878 21.8759C10.1418 20.8639 10.1326 20.5599 10.1326 17.9963C10.1326 15.4327 10.1418 15.1303 10.1878 14.1183C10.2306 13.1822 10.387 12.6742 10.5184 12.3358C10.6924 11.8878 10.9008 11.5678 11.2368 11.2318C11.5728 10.8958 11.8928 10.6878 12.3408 10.5134C12.6792 10.3814 13.1874 10.2254 14.1234 10.1824C15.009 10.1424 15.3522 10.1304 17.1414 10.1284V10.1308ZM23.1263 11.7255C22.4903 11.7255 21.9743 12.2409 21.9743 12.8771C21.9743 13.5131 22.4903 14.0291 23.1263 14.0291C23.7623 14.0291 24.2783 13.5131 24.2783 12.8771C24.2783 12.2411 23.7623 11.7251 23.1263 11.7251V11.7255ZM18.0012 13.0713C15.2786 13.0713 13.0711 15.2787 13.0711 18.0013C13.0711 20.724 15.2786 22.9304 18.0012 22.9304C20.7238 22.9304 22.9304 20.724 22.9304 18.0013C22.9304 15.2787 20.7236 13.0713 18.001 13.0713H18.0012ZM18.0025 14.8013C19.7697 14.8013 21.2026 16.2339 21.2026 18.0013C21.2026 19.7685 19.7697 21.2013 18.0025 21.2013C16.2351 21.2013 14.8025 19.7685 14.8025 18.0013C14.8025 16.2339 16.2351 14.8013 18.0025 14.8013V14.8013Z" fill="#00122E"/>
</g>
</svg>
