<svg width="36" height="36" viewBox="0 0 36 36" fill="none" xmlns="http://www.w3.org/2000/svg">
<rect width="36" height="36" rx="18" fill="white"/>
<path d="M9.2726 15.3572H12.6268V26.1427H9.2726V15.3572ZM10.9438 10C12.0223 10 12.8875 10.8652 12.8875 11.9438C12.8875 13.0223 12.0223 13.8875 10.9438 13.8875C9.86521 13.8875 9 13.0105 9 11.9438C9 10.8771 9.86521 10 10.9438 10Z" fill="#00122E"/>
<path d="M14.7245 15.3571H17.9364V16.8267H17.9839C18.4342 15.9734 19.5246 15.0845 21.1602 15.0845C24.55 15.0845 25.1781 17.3127 25.1781 20.2165V26.1307H21.824V20.892C21.824 19.6357 21.8003 18.0357 20.0817 18.0357C18.3631 18.0357 18.0668 19.3987 18.0668 20.8091V26.1426H14.7126V15.3571H14.7245Z" fill="#00122E"/>
</svg>
