<svg width="36" height="36" viewBox="0 0 36 36" fill="none" xmlns="http://www.w3.org/2000/svg">
<rect width="36" height="36" rx="18" fill="white"/>
<path d="M25.8987 13.507C24.8699 13.507 23.9206 13.1661 23.1583 12.5911C22.284 11.932 21.6558 10.9651 21.434 9.85069C21.3791 9.57534 21.3495 9.29119 21.3467 9H18.4077V17.0308L18.4041 21.4297C18.4041 22.6057 17.6383 23.6029 16.5767 23.9536C16.2686 24.0553 15.9359 24.1036 15.5894 24.0846C15.1472 24.0603 14.7327 23.9268 14.3725 23.7113C13.606 23.2529 13.0863 22.4212 13.0722 21.4698C13.05 19.9829 14.2521 18.7706 15.738 18.7706C16.0313 18.7706 16.313 18.8185 16.5767 18.9054V16.7104V15.9213C16.2985 15.8801 16.0155 15.8587 15.7292 15.8587C14.1028 15.8587 12.5817 16.5347 11.4944 17.7526C10.6726 18.6731 10.1796 19.8473 10.1036 21.0786C10.0039 22.6962 10.5958 24.2339 11.7437 25.3683C11.9124 25.5349 12.0895 25.6895 12.2747 25.8321C13.2588 26.5894 14.462 27 15.7292 27C16.0155 27 16.2985 26.9789 16.5767 26.9377C17.7605 26.7623 18.8527 26.2204 19.7147 25.3683C20.7738 24.3215 21.359 22.9318 21.3653 21.4526L21.3502 14.8837C21.8555 15.2735 22.4079 15.596 23.0009 15.8463C23.923 16.2354 24.9008 16.4326 25.9072 16.4322V14.2981V13.5062C25.9079 13.507 25.8994 13.507 25.8987 13.507Z" fill="#00122E"/>
</svg>
