<svg width="176" height="176" viewBox="0 0 176 176" fill="none" xmlns="http://www.w3.org/2000/svg">
<g clip-path="url(#clip0_2031_4518)">
<path d="M82.863 0H92.883C94.1935 0.395434 96.6943 0.367116 98.1535 0.557552C102.356 1.10611 106.412 1.82884 110.516 2.91589C133.279 9.02988 152.664 23.9711 164.372 44.4275C175.751 64.201 178.806 87.6863 172.863 109.712C166.679 132.205 151.827 151.326 131.565 162.883C111.381 174.441 87.432 177.507 64.987 171.408C62.073 170.618 59.2005 169.682 56.3804 168.604C55.1106 168.109 53.851 167.588 52.6024 167.042C51.776 166.679 48.692 165.108 48.1145 165.218C44.5415 165.901 40.8245 166.812 37.283 167.617L9.17443 174.005C8.28466 174.207 0.873778 175.838 0.679004 176H0.29242C0.493592 174.555 1.02016 172.422 1.33726 170.975L7.99192 140.739C8.88061 136.7 9.86116 132.516 10.6584 128.467C10.0373 126.894 8.61927 124.424 7.83651 122.674C5.50425 117.535 3.66138 112.188 2.33234 106.703C1.63302 103.773 1.08302 100.81 0.684484 97.8244C0.522492 96.5894 0.308313 92.9852 0 92.107V82.1138C0.260286 81.4934 0.484878 77.9916 0.578713 77.1451C0.757861 75.601 0.981097 74.0625 1.24815 72.5312C2.87696 62.9928 6.1128 53.7999 10.8178 45.3442C22.3646 24.5686 41.8014 9.32688 64.731 3.06703C69.4371 1.79991 74.2057 0.915698 79.0532 0.414612C80.0619 0.31035 81.9375 0.296623 82.863 0ZM25.2118 126.125C25.0197 127.652 24.4115 130.092 24.0644 131.668L19.5968 151.975C19.2133 153.726 18.7605 156.154 18.2737 157.79L39.3003 153.021C42.5942 152.272 45.9125 151.507 49.2131 150.783C49.464 150.728 50.2769 150.61 50.4652 150.685C51.6304 151.15 52.9945 151.964 54.0968 152.536C55.4117 153.214 56.7465 153.852 58.0993 154.45C64.0312 157.1 70.0679 158.724 76.4507 159.803C79.3475 160.206 82.0322 160.524 84.9775 160.632C102.06 161.313 118.855 156.085 132.533 145.828C148.137 134.223 158.493 116.895 161.321 97.6542C164.099 78.4305 159.027 58.8974 147.249 43.4528C135.47 27.6875 117.892 17.2686 98.4079 14.5033C94.7289 14.0012 90.2146 13.6843 86.5038 13.7955C66.7528 14.1346 47.9511 22.3289 34.2574 36.5657C20.7505 50.5294 13.3732 69.3052 13.7615 88.7287C13.9312 99.0447 16.7403 109.623 21.2474 118.866C22.4828 121.4 23.8158 123.686 25.2118 126.125Z" fill="white"/>
<path d="M60.1667 48.7639C67.2888 48.5156 67.2127 49.1052 69.9028 55.522C70.9448 58.0426 71.9744 60.5685 72.9912 63.0994C73.5872 64.5683 74.717 66.8118 75.0562 68.2588C75.3311 69.431 75.0079 70.3617 74.4904 71.3954C73.5154 73.3429 72.1639 74.8203 70.6555 76.3617C70.0102 77.021 69.2648 77.6752 68.7852 78.4704C68.4301 79.0592 68.2486 79.7523 68.438 80.4281C68.7756 81.6332 70.133 83.4774 70.8576 84.5615C75.6648 91.7529 81.7336 97.7204 89.253 102.039C91.0869 103.092 96.5087 106.01 98.3692 106.063C98.7714 106.075 99.2217 106.011 99.5766 105.811C100.418 105.334 101.141 104.334 101.757 103.607C102.996 102.156 104.21 100.683 105.397 99.1891C106.026 98.3812 107.77 95.718 108.793 95.5608C110.751 95.2583 113.579 96.8387 115.36 97.6903C117.453 98.6975 119.541 99.7176 121.621 100.751L125.645 102.744C126.772 103.304 129.266 104.24 129.373 105.616C129.64 109.068 128.79 113.797 126.746 116.643C126.625 116.79 126.503 116.936 126.38 117.081C123.835 120.067 119.599 122.735 115.781 123.741C114.53 124.071 113.193 124.191 111.904 124.292C104.493 124.877 90.1502 119.467 83.6475 115.798C79.8349 113.621 76.245 111.073 72.9295 108.195C66.67 102.842 61.7915 97.0114 57.0322 90.3152C52.5944 84.0715 48.4865 77.638 47.8224 69.7578C47.2973 63.526 49.1831 57.4437 53.3531 52.7841C55.524 50.3583 56.7564 49.0001 60.1667 48.7639Z" fill="white"/>
</g>
<defs>
<clipPath id="clip0_2031_4518">
<rect width="176" height="176" fill="white"/>
</clipPath>
</defs>
</svg>
