<svg width="85" height="20" viewBox="0 0 85 20" fill="none" xmlns="http://www.w3.org/2000/svg">
<g clip-path="url(#clip0_2032_149)">
<path d="M38.4096 1.64167L34.7154 15.7126C33.5775 15.9054 32.3103 15.948 30.9138 15.7126L28.3369 6.26815L25.7166 15.7126C24.5569 15.927 23.333 15.948 21.9583 15.7126L18.2426 1.64167C19.4455 1.38478 20.6052 1.40637 21.7216 1.64167L24.1269 11.5575L26.4462 1.64167C27.6058 1.40637 28.9806 1.38478 30.1829 1.64167L32.9749 11.6006L34.9291 1.64167C36.1321 1.38478 37.3127 1.40637 38.4082 1.64167H38.4096Z" fill="white"/>
<path d="M38.4127 10.308C38.4127 6.88118 40.7321 4.73952 44.0175 4.73952C47.3032 4.73952 49.6225 6.96681 49.6225 10.308C49.6225 13.6493 47.4109 15.8981 44.0175 15.8981C40.6246 15.8981 38.4127 13.6924 38.4127 10.308ZM46.3805 10.308C46.3805 8.55211 45.5219 7.52376 44.0175 7.52376C42.5139 7.52376 41.6551 8.55211 41.6551 10.308C41.6551 12.064 42.5355 13.1138 44.0175 13.1138C45.5001 13.1138 46.3805 12.1503 46.3805 10.308Z" fill="white"/>
<path d="M67.4685 8.05933V15.6838H64.2688V9.19489C64.2688 8.05999 63.5384 7.48144 62.2502 7.48144C61.6487 7.48144 61.0691 7.61025 60.5958 7.80237C60.7677 8.27376 60.8536 8.78754 60.8536 9.34456V15.6838H57.6539V9.19489C57.6539 8.05999 56.9235 7.48144 55.6353 7.48144C55.1422 7.48144 54.669 7.54548 54.2605 7.6527V15.6838H51.0178L51.0396 6.1537C52.3285 5.25416 54.3464 4.76191 56.0431 4.76191C57.3961 4.76191 58.5561 5.21171 59.3935 5.93999C60.4894 5.2333 62.0143 4.76191 63.3025 4.76191C65.6429 4.76191 67.4685 6.00403 67.4685 8.05999V8.05933Z" fill="white"/>
<path d="M80.2727 10.6722C80.2727 13.5846 78.8986 15.8982 75.6552 15.8982C74.6671 15.8982 73.5937 15.5772 72.6915 14.9555V18.9177C71.9611 19.4956 70.308 19.967 69.4481 19.967V5.59668C70.5004 5.10449 72.2189 4.76125 74.0015 4.76125C77.8886 4.76125 80.2721 6.88124 80.2721 10.6722H80.2727ZM77.0512 10.2865C77.0512 8.70191 76.1919 7.33105 74.1945 7.33105C73.7437 7.33105 73.2282 7.37416 72.6915 7.45985V13.0499C73.1211 13.1355 73.6366 13.1996 74.2804 13.1996C75.9989 13.1996 77.0512 12.4073 77.0512 10.2872V10.2865Z" fill="white"/>
<path d="M81.6469 1.67687C81.6469 0.777339 82.3991 0.0281982 83.3013 0.0281982C84.2028 0.0281982 84.9762 0.756478 84.9762 1.67687C84.9762 2.59727 84.224 3.32628 83.3013 3.32628C82.3779 3.32628 81.6469 2.598 81.6469 1.67687ZM81.6905 5.06125C82.1413 4.8684 82.6998 4.76118 83.3224 4.76118C83.9457 4.76118 84.4824 4.8684 84.9332 5.06125V15.6838H81.6905V5.06125Z" fill="white"/>
<path d="M14.5196 1.8133V5.72264C14.5196 5.95727 14.4051 6.178 14.2131 6.31376L10.4701 8.95734C10.4701 8.95734 10.4666 8.95946 10.4653 8.96085C10.2922 9.08548 10.1832 9.27906 10.1664 9.48932C10.1644 9.50946 10.1637 9.52966 10.1637 9.54985V15.5709C10.1637 15.7707 10.001 15.933 9.80059 15.933H9.52484C9.39569 15.933 9.27625 15.864 9.21134 15.7533L5.38178 9.20595C5.38178 9.20595 5.38039 9.20317 5.37901 9.20244C5.29526 9.06462 5.08091 9.12376 5.08091 9.28668V15.5709C5.08091 15.7707 4.91825 15.933 4.71784 15.933H4.44209C4.31287 15.933 4.1935 15.864 4.12859 15.7533L0.144038 8.94204C0.047669 8.77846 -0.00256348 8.59184 -0.00256348 8.40177V1.8133C-0.00256348 1.61277 0.160099 1.45124 0.360503 1.45124H0.636259C0.764751 1.45124 0.884119 1.51946 0.949753 1.63019L4.77925 8.1776C4.86233 8.31959 5.08018 8.26111 5.08018 8.09681V1.8133C5.08018 1.61277 5.24285 1.45124 5.44325 1.45124H5.71901C5.8475 1.45124 5.96687 1.51946 6.0325 1.63019L9.86206 8.1776C9.94515 8.31959 10.1629 8.26111 10.1629 8.09681V4.66091C10.1629 4.31277 10.3319 3.98628 10.6168 3.78502L13.8271 1.5174C13.8885 1.47422 13.9618 1.45124 14.0372 1.45124H14.1565C14.357 1.45124 14.5196 1.61277 14.5196 1.8133Z" fill="white"/>
</g>
<defs>
<clipPath id="clip0_2032_149">
<rect width="85" height="20" fill="white"/>
</clipPath>
</defs>
</svg>
