<svg width="36" height="36" viewBox="0 0 36 36" fill="none" xmlns="http://www.w3.org/2000/svg">
<rect width="36" height="36" rx="18" fill="white"/>
<path fill-rule="evenodd" clip-rule="evenodd" d="M27.1988 13.2549C26.978 12.4066 26.3274 11.7387 25.5012 11.512C24.0041 11.1 18 11.1 18 11.1C18 11.1 11.996 11.1 10.4987 11.512C9.67257 11.7387 9.02195 12.4066 8.80115 13.2549C8.40002 14.7923 8.40002 18 8.40002 18C8.40002 18 8.40002 21.2076 8.80115 22.7451C9.02195 23.5933 9.67257 24.2613 10.4987 24.4881C11.996 24.9 18 24.9 18 24.9C18 24.9 24.0041 24.9 25.5012 24.4881C26.3274 24.2613 26.978 23.5933 27.1988 22.7451C27.6 21.2076 27.6 18 27.6 18C27.6 18 27.6 14.7923 27.1988 13.2549" fill="#00122E"/>
<path fill-rule="evenodd" clip-rule="evenodd" d="M16.2018 21.3011V15.3011L21.0018 18.3013L16.2018 21.3011Z" fill="white"/>
</svg>
