<svg width="16" height="16" viewBox="0 0 16 16" fill="none" xmlns="http://www.w3.org/2000/svg">
<g clip-path="url(#clip0_2071_1056)">
<path d="M6.75058 9.69639L4.47134 7.5284C4.34633 7.40342 4.17679 7.33321 4.00001 7.33321C3.82323 7.33321 3.6537 7.40342 3.52868 7.5284C3.4037 7.65342 3.33349 7.82296 3.33349 7.99973C3.33349 8.17651 3.4037 8.34605 3.52868 8.47107L5.80791 10.6391C5.93173 10.7629 6.07874 10.8612 6.24054 10.9282C6.40234 10.9953 6.57577 11.0298 6.75091 11.0298C6.92605 11.0298 7.09948 10.9953 7.26128 10.9282C7.42308 10.8612 7.57009 10.7629 7.69391 10.6391L12.4715 5.80454C12.5965 5.67953 12.6667 5.50999 12.6667 5.33321C12.6667 5.15643 12.5965 4.9869 12.4715 4.86188C12.3465 4.7369 12.177 4.66669 12.0002 4.66669C11.8234 4.66669 11.6539 4.7369 11.5289 4.86188L6.75058 9.69639Z" fill="#E0EAFF"/>
<path d="M8 0C6.41775 0 4.87104 0.469192 3.55544 1.34824C2.23985 2.22729 1.21447 3.47672 0.608967 4.93853C0.00346629 6.40034 -0.15496 8.00887 0.153721 9.56072C0.462403 11.1126 1.22433 12.538 2.34315 13.6569C3.46197 14.7757 4.88743 15.5376 6.43928 15.8463C7.99113 16.155 9.59966 15.9965 11.0615 15.391C12.5233 14.7855 13.7727 13.7602 14.6518 12.4446C15.5308 11.129 16 9.58225 16 8C15.9977 5.87897 15.1541 3.84547 13.6543 2.34568C12.1545 0.845886 10.121 0.00229405 8 0V0ZM8 14.6667C6.68146 14.6667 5.39253 14.2757 4.2962 13.5431C3.19987 12.8106 2.34539 11.7694 1.84081 10.5512C1.33622 9.33305 1.2042 7.99261 1.46144 6.6994C1.71867 5.40619 2.35361 4.21831 3.28596 3.28596C4.21831 2.35361 5.4062 1.71867 6.6994 1.46143C7.99261 1.2042 9.33305 1.33622 10.5512 1.8408C11.7694 2.34539 12.8106 3.19987 13.5431 4.2962C14.2757 5.39253 14.6667 6.68146 14.6667 8C14.6647 9.76752 13.9617 11.4621 12.7119 12.7119C11.4621 13.9617 9.76752 14.6647 8 14.6667Z" fill="#E0EAFF"/>
</g>
<defs>
<clipPath id="clip0_2071_1056">
<rect width="16" height="16" fill="white"/>
</clipPath>
</defs>
</svg>
