<svg width="16" height="16" viewBox="0 0 16 16" fill="none" xmlns="http://www.w3.org/2000/svg">
<g clip-path="url(#clip0_2005_3749)">
<path d="M6.75055 9.69636L4.47131 7.52837C4.34629 7.40339 4.17676 7.33318 3.99998 7.33318C3.8232 7.33318 3.65366 7.40339 3.52865 7.52837C3.40367 7.65339 3.33346 7.82293 3.33346 7.9997C3.33346 8.17648 3.40367 8.34602 3.52865 8.47104L5.80788 10.639C5.9317 10.7629 6.07871 10.8612 6.24051 10.9282C6.40231 10.9952 6.57574 11.0297 6.75088 11.0297C6.92602 11.0297 7.09945 10.9952 7.26125 10.9282C7.42305 10.8612 7.57006 10.7629 7.69388 10.639L12.4715 5.80451C12.5965 5.67949 12.6667 5.50996 12.6667 5.33318C12.6667 5.1564 12.5965 4.98687 12.4715 4.86185C12.3465 4.73687 12.1769 4.66666 12.0002 4.66666C11.8234 4.66666 11.6539 4.73687 11.5288 4.86185L6.75055 9.69636Z" fill="#374957"/>
<path d="M8 0C6.41775 0 4.87103 0.469192 3.55544 1.34824C2.23985 2.22729 1.21447 3.47672 0.608967 4.93853C0.00346629 6.40034 -0.15496 8.00888 0.153721 9.56072C0.462403 11.1126 1.22433 12.538 2.34315 13.6569C3.46197 14.7757 4.88743 15.5376 6.43928 15.8463C7.99113 16.155 9.59966 15.9965 11.0615 15.391C12.5233 14.7855 13.7727 13.7602 14.6518 12.4446C15.5308 11.129 16 9.58225 16 8C15.9977 5.87897 15.1541 3.84547 13.6543 2.34568C12.1545 0.845886 10.121 0.00229405 8 0V0ZM8 14.6667C6.68146 14.6667 5.39253 14.2757 4.2962 13.5431C3.19987 12.8106 2.34539 11.7694 1.84081 10.5512C1.33622 9.33305 1.2042 7.99261 1.46144 6.6994C1.71867 5.40619 2.35361 4.21831 3.28596 3.28596C4.21831 2.3536 5.4062 1.71867 6.6994 1.46143C7.99261 1.2042 9.33305 1.33622 10.5512 1.8408C11.7694 2.34539 12.8106 3.19987 13.5431 4.2962C14.2757 5.39253 14.6667 6.68146 14.6667 8C14.6647 9.76752 13.9617 11.4621 12.7119 12.7119C11.4621 13.9617 9.76752 14.6647 8 14.6667V14.6667Z" fill="#374957"/>
</g>
<defs>
<clipPath id="clip0_2005_3749">
<rect width="16" height="16" fill="white"/>
</clipPath>
</defs>
</svg>
