<svg width="16" height="16" viewBox="0 0 16 16" fill="none" xmlns="http://www.w3.org/2000/svg">
<g clip-path="url(#clip0_2079_1081)">
<path d="M14.7045 3.48657L9.78852 1.14457C8.7064 0.498195 7.35952 0.486726 6.26652 1.11457L1.29521 3.48657C1.27656 3.49591 1.25721 3.50591 1.23921 3.51657C0.0594621 4.19113 -0.350101 5.69435 0.324462 6.8741C0.553118 7.27404 0.889462 7.60173 1.29521 7.81991L2.66656 8.47326V11.7399C2.66737 13.2006 3.61784 14.4911 5.01256 14.9253C5.98315 15.206 6.98956 15.3435 7.9999 15.3333C9.01009 15.3446 10.0165 15.2083 10.9872 14.9286C12.382 14.4945 13.3324 13.204 13.3332 11.7433V8.47191L14.6666 7.83457V13.3332C14.6666 13.7014 14.9651 13.9999 15.3332 13.9999C15.7014 13.9999 15.9999 13.7014 15.9999 13.3332V5.33323C16.0043 4.55038 15.3862 3.82719 14.7045 3.48657ZM11.9999 11.7433C12.0002 12.617 11.4333 13.3898 10.5999 13.6519C9.75468 13.8934 8.87884 14.0106 7.99987 13.9999C7.1209 14.0106 6.24506 13.8934 5.39987 13.6519C4.5664 13.3898 3.99952 12.617 3.99987 11.7433V9.1086L6.21121 10.1619C6.75684 10.4859 7.37999 10.6562 8.01456 10.6546C8.61856 10.6589 9.2124 10.499 9.73256 10.1919L11.9999 9.10857V11.7433ZM14.1332 6.61657L9.10521 9.01657C8.40415 9.42479 7.53518 9.41323 6.84521 8.98657L1.92587 6.64657C1.37752 6.35088 1.17271 5.66666 1.4684 5.11835C1.5684 4.93291 1.71834 4.7792 1.90121 4.67457L6.89787 2.28791C7.59915 1.8806 8.46765 1.89213 9.15787 2.31791L14.0739 4.65991C14.4354 4.86066 14.6616 5.23976 14.6665 5.65326C14.6672 6.04494 14.4655 6.40919 14.1332 6.61657Z" fill="#B8CEF9"/>
</g>
<defs>
<clipPath id="clip0_2079_1081">
<rect width="16" height="16" fill="white"/>
</clipPath>
</defs>
</svg>
