<svg width="16" height="16" viewBox="0 0 16 16" fill="none" xmlns="http://www.w3.org/2000/svg">
<g clip-path="url(#clip0_2006_3857)">
<path d="M14.7045 3.48654L9.78852 1.14454C8.7064 0.498164 7.35952 0.486696 6.26652 1.11454L1.29521 3.48654C1.27656 3.49588 1.25721 3.50588 1.23921 3.51654C0.0594621 4.1911 -0.350101 5.69432 0.324462 6.87407C0.553118 7.27401 0.889462 7.6017 1.29521 7.81988L2.66656 8.47323V11.7399C2.66737 13.2006 3.61784 14.4911 5.01256 14.9252C5.98315 15.206 6.98956 15.3435 7.9999 15.3332C9.01009 15.3445 10.0165 15.2082 10.9872 14.9286C12.382 14.4945 13.3324 13.2039 13.3332 11.7432V8.47188L14.6666 7.83454V13.3332C14.6666 13.7014 14.9651 13.9999 15.3332 13.9999C15.7014 13.9999 15.9999 13.7014 15.9999 13.3332V5.3332C16.0043 4.55035 15.3862 3.82716 14.7045 3.48654ZM11.9999 11.7432C12.0002 12.6169 11.4333 13.3898 10.5999 13.6519C9.75468 13.8934 8.87884 14.0106 7.99987 13.9999C7.1209 14.0106 6.24506 13.8934 5.39987 13.6519C4.5664 13.3898 3.99952 12.6169 3.99987 11.7432V9.10857L6.21121 10.1619C6.75684 10.4859 7.37999 10.6562 8.01456 10.6546C8.61856 10.6589 9.2124 10.4989 9.73256 10.1919L11.9999 9.10854V11.7432ZM14.1332 6.61654L9.10521 9.01654C8.40415 9.42476 7.53518 9.4132 6.84521 8.98654L1.92587 6.64654C1.37752 6.35085 1.17271 5.66663 1.4684 5.11832C1.5684 4.93288 1.71834 4.77916 1.90121 4.67454L6.89787 2.28788C7.59915 1.88057 8.46765 1.8921 9.15787 2.31788L14.0739 4.65988C14.4354 4.86063 14.6616 5.23973 14.6665 5.65323C14.6672 6.04491 14.4655 6.40916 14.1332 6.61654Z" fill="#374957"/>
</g>
<defs>
<clipPath id="clip0_2006_3857">
<rect width="16" height="16" fill="white"/>
</clipPath>
</defs>
</svg>
