<svg width="16" height="16" viewBox="0 0 16 16" fill="none" xmlns="http://www.w3.org/2000/svg">
<g clip-path="url(#clip0_2079_1078)">
<path d="M13.2999 3.69093L10.976 1.36693C10.5437 0.932313 10.0295 0.587743 9.46316 0.353156C8.89683 0.118569 8.2896 -0.00137623 7.67662 0.000260671H4.66662C3.78289 0.00131924 2.93565 0.352849 2.31076 0.977741C1.68587 1.60263 1.33434 2.44986 1.33328 3.33359V12.6669C1.33434 13.5507 1.68587 14.3979 2.31076 15.0228C2.93565 15.6477 3.78289 15.9992 4.66662 16.0003H11.3333C12.217 15.9992 13.0642 15.6477 13.6891 15.0228C14.314 14.3979 14.6656 13.5507 14.6666 12.6669V6.99026C14.6683 6.37727 14.5483 5.77005 14.3137 5.20372C14.0791 4.63739 13.7346 4.12321 13.2999 3.69093ZM12.3573 4.63359C12.5606 4.8432 12.7357 5.07853 12.8779 5.33359H9.99995C9.82314 5.33359 9.65357 5.26336 9.52855 5.13833C9.40352 5.01331 9.33328 4.84374 9.33328 4.66693V1.78893C9.58834 1.93118 9.82368 2.10623 10.0333 2.30959L12.3573 4.63359ZM13.3333 12.6669C13.3333 13.1974 13.1226 13.7061 12.7475 14.0811C12.3724 14.4562 11.8637 14.6669 11.3333 14.6669H4.66662C4.13618 14.6669 3.62748 14.4562 3.2524 14.0811C2.87733 13.7061 2.66662 13.1974 2.66662 12.6669V3.33359C2.66662 2.80316 2.87733 2.29445 3.2524 1.91938C3.62748 1.54431 4.13618 1.33359 4.66662 1.33359H7.67662C7.78662 1.33359 7.89195 1.35493 7.99995 1.36493V4.66693C7.99995 5.19736 8.21066 5.70607 8.58574 6.08114C8.96081 6.45621 9.46952 6.66693 9.99995 6.66693H13.3019C13.3119 6.77493 13.3333 6.88026 13.3333 6.99026V12.6669Z" fill="#B8CEF9"/>
</g>
<defs>
<clipPath id="clip0_2079_1078">
<rect width="16" height="16" fill="white"/>
</clipPath>
</defs>
</svg>
