<svg width="16" height="16" viewBox="0 0 16 16" fill="none" xmlns="http://www.w3.org/2000/svg">
<g clip-path="url(#clip0_2006_3853)">
<path d="M13.2999 3.69096L10.9759 1.36696C10.5436 0.932344 10.0295 0.587773 9.46313 0.353187C8.8968 0.1186 8.28957 -0.00134572 7.67659 0.000291189H4.66659C3.78286 0.00134976 2.93562 0.352879 2.31073 0.977771C1.68584 1.60266 1.33431 2.44989 1.33325 3.33362V12.667C1.33431 13.5507 1.68584 14.3979 2.31073 15.0228C2.93562 15.6477 3.78286 15.9992 4.66659 16.0003H11.3333C12.217 15.9992 13.0642 15.6477 13.6891 15.0228C14.314 14.3979 14.6655 13.5507 14.6666 12.667V6.99029C14.6682 6.3773 14.5483 5.77008 14.3137 5.20375C14.0791 4.63742 13.7345 4.12324 13.2999 3.69096ZM12.3573 4.63362C12.5606 4.84323 12.7357 5.07856 12.8779 5.33362H9.99992C9.82311 5.33362 9.65354 5.26339 9.52851 5.13836C9.40349 5.01334 9.33325 4.84377 9.33325 4.66696V1.78896C9.58831 1.93121 9.82365 2.10626 10.0333 2.30962L12.3573 4.63362ZM13.3333 12.667C13.3333 13.1974 13.1225 13.7061 12.7475 14.0812C12.3724 14.4562 11.8637 14.667 11.3333 14.667H4.66659C4.13615 14.667 3.62744 14.4562 3.25237 14.0812C2.8773 13.7061 2.66659 13.1974 2.66659 12.667V3.33362C2.66659 2.80319 2.8773 2.29448 3.25237 1.91941C3.62744 1.54434 4.13615 1.33362 4.66659 1.33362H7.67659C7.78659 1.33362 7.89192 1.35496 7.99992 1.36496V4.66696C7.99992 5.19739 8.21063 5.7061 8.58571 6.08117C8.96078 6.45624 9.46949 6.66696 9.99992 6.66696H13.3019C13.3119 6.77496 13.3333 6.88029 13.3333 6.99029V12.667Z" fill="#374957"/>
</g>
<defs>
<clipPath id="clip0_2006_3853">
<rect width="16" height="16" fill="white"/>
</clipPath>
</defs>
</svg>
