<svg width="16" height="16" viewBox="0 0 16 16" fill="none" xmlns="http://www.w3.org/2000/svg">
<path d="M12.3874 1.42713L8.21074 0.0344657C8.07399 -0.0110817 7.92616 -0.0110817 7.78941 0.0344657L3.61207 1.42713C2.94813 1.64783 2.37062 2.07213 1.96156 2.63976C1.55251 3.20738 1.33272 3.88947 1.33341 4.58913V8.00047C1.33341 13.0425 7.46674 15.8271 7.72941 15.9431C7.81462 15.981 7.90683 16.0006 8.00007 16.0006C8.09332 16.0006 8.18553 15.981 8.27074 15.9431C8.53341 15.8271 14.6667 13.0425 14.6667 8.00047V4.58913C14.6674 3.88939 14.4475 3.20724 14.0383 2.63961C13.6291 2.07197 13.0515 1.64772 12.3874 1.42713V1.42713ZM13.3334 8.00047C13.3334 11.6371 9.12074 14.0225 8.00007 14.5931C6.87807 14.0245 2.66674 11.6465 2.66674 8.00047V4.58913C2.66673 4.1694 2.79878 3.7603 3.04418 3.41978C3.28958 3.07926 3.63589 2.82457 4.03407 2.6918L8.00007 1.3698L11.9654 2.6918C12.3637 2.82446 12.7102 3.0791 12.9557 3.41963C13.2012 3.76016 13.3334 4.16932 13.3334 4.58913V8.00047Z" fill="#E0EAFF"/>
</svg>
