<svg width="16" height="16" viewBox="0 0 16 16" fill="none" xmlns="http://www.w3.org/2000/svg">
<path d="M12.3874 1.42713L8.21071 0.0344657C8.07396 -0.0110817 7.92613 -0.0110817 7.78938 0.0344657L3.61204 1.42713C2.9481 1.64783 2.37059 2.07213 1.96153 2.63976C1.55248 3.20738 1.33269 3.88947 1.33338 4.58913V8.00047C1.33338 13.0425 7.46671 15.8271 7.72938 15.9431C7.81459 15.981 7.9068 16.0006 8.00004 16.0006C8.09329 16.0006 8.1855 15.981 8.27071 15.9431C8.53338 15.8271 14.6667 13.0425 14.6667 8.00047V4.58913C14.6674 3.88939 14.4475 3.20724 14.0383 2.63961C13.6291 2.07197 13.0514 1.64772 12.3874 1.42713V1.42713ZM13.3334 8.00047C13.3334 11.6371 9.12071 14.0225 8.00004 14.5931C6.87804 14.0245 2.66671 11.6465 2.66671 8.00047V4.58913C2.6667 4.1694 2.79875 3.7603 3.04415 3.41978C3.28955 3.07926 3.63586 2.82457 4.03404 2.6918L8.00004 1.3698L11.9654 2.6918C12.3637 2.82446 12.7101 3.0791 12.9557 3.41963C13.2012 3.76016 13.3333 4.16932 13.3334 4.58913V8.00047Z" fill="#374957"/>
</svg>
